<svg width="339" height="422" viewBox="0 0 339 422" fill="none" xmlns="http://www.w3.org/2000/svg">
<path d="M167.442 108.614C190.62 106.176 216.135 107.475 234.109 121.502C250.894 134.608 257.432 155.857 262.111 175.951C269.809 208.962 274.89 242.527 277.307 276.332C278.974 299.755 279.176 324.171 269.023 345.6C260.086 364.462 243.852 379.365 226.651 392.139C207.041 406.705 184.617 419.506 159.761 421.525C129.578 423.973 100.345 410.096 76.6685 392.243C39.2766 364.027 10.916 323.917 3.04809 279.298C-2.96576 245.177 3.86345 208.654 23.3384 179.217C41.4838 151.783 70.3846 136.223 101.679 124.349C122.827 116.295 144.932 111.006 167.442 108.614Z" fill="#FF4949" fill-opacity="0.5"/>
<path d="M51.8539 178.935C48.3121 193.491 45.7622 208.647 46.4633 223.834C47.1644 239.02 51.3761 254.347 59.8672 265.269C71.495 280.244 89.0536 284.939 105.568 288.003C136.853 293.8 168.766 296.357 200.087 291.052C231.407 285.746 262.287 272.246 287.417 248.317C312.548 224.387 331.56 189.479 336.79 150.616C342.02 111.753 332.371 69.3191 309.234 42.4339C295.166 26.0772 276.932 16.0095 258.21 10.1966C240.553 4.72022 218.284 -1.22722 200.045 0.501627C184.003 2.01825 165.93 14.85 152.199 24.5657C121.777 46.0883 95.592 76.8453 76.491 113.389C65.6604 134.169 57.3881 156.177 51.8539 178.935Z" fill="#FFD1D1"/>
<g clip-path="url(#clip0)">
<path opacity="0.8" d="M188.238 311.054C188.281 310.897 188.315 310.736 188.362 310.583C188.596 309.977 188.795 309.359 188.958 308.73C190.46 309.154 191.251 311.597 191.447 313.026C191.719 315.032 191.872 317.136 192.196 319.137C192.728 322.602 192.523 326.177 192.523 329.71V332.59C192.498 333.013 192.498 333.438 192.523 333.862C192.638 334.71 192.902 334.638 193.693 335.011C194.774 335.524 194.97 335.639 196.17 335.385C196.77 335.259 197.393 335.289 197.978 335.474C199.34 335.804 200.578 335.821 200.872 334.201C200.997 333.213 200.964 332.211 200.774 331.233C200.578 330.189 200.483 329.13 200.489 328.069C200.489 326.796 200.859 325.651 200.85 324.366C200.85 323.255 200.85 322.148 200.85 321.037C200.85 319.765 201.004 318.421 200.778 317.174C200.489 315.605 199.638 314.107 199.382 312.564C199.319 312.178 199.314 311.826 199.221 311.482C199.143 311.315 199.103 311.132 199.103 310.948C199.103 310.763 199.143 310.581 199.221 310.414C199.544 309.256 199.31 307.924 199.476 306.681C199.901 303.505 200.54 300.125 201.935 297.211C202.148 296.787 202.391 296.338 202.637 295.914C196.408 299.205 189.749 304.031 188.238 311.054Z" fill="#29299C"/>
<path opacity="0.8" d="M155.065 312.203C149.988 313.285 148.176 319.79 146.725 324.502C145.125 330.244 141.551 335.138 139.24 340.677H139.342C140.138 340.817 140.585 341.072 141.47 341.063C142.27 341.063 143.074 341.063 143.874 341.063C146.339 341.052 148.799 341.284 151.218 341.754C151.354 341.33 151.218 340.94 151.299 340.525C151.38 340.109 151.754 339.706 151.916 339.252C152.25 338.328 152.64 337.425 153.082 336.546C153.988 334.753 154.358 332.789 155.171 330.948C155.439 330.35 155.716 329.769 155.975 329.176C156.167 328.752 156.273 328.247 156.426 327.793C156.551 327.416 156.635 327.026 156.677 326.631C156.852 325.562 157.443 324.477 157.694 323.404C157.918 322.621 158.073 321.821 158.158 321.012C158.12 320.552 158.12 320.089 158.158 319.629C158.239 319.294 158.452 319.116 158.498 318.705C158.546 318.282 158.546 317.855 158.498 317.432C158.387 316.629 158.109 315.858 157.681 315.168C157.2 314.58 156.772 313.95 156.405 313.285C156.211 312.906 156.089 312.495 156.043 312.072C155.713 312.083 155.386 312.127 155.065 312.203Z" fill="#29299C"/>
<path d="M219.012 206.422C218.816 204.204 219.055 201.986 218.85 199.767C218.663 197.723 218.557 195.76 218.57 193.703C218.535 190.485 218.297 187.273 217.859 184.084C217.038 177.277 215.093 170.551 212.608 164.152C211.515 161.336 210.906 158.363 209.702 155.593C208.851 153.621 208.375 151.492 207.443 149.584C206.983 148.638 206.817 147.591 206.417 146.615C206.018 145.772 205.478 145.002 204.822 144.338C204.154 143.57 203.792 142.641 203.192 141.836C202.478 140.865 201.849 139.835 201.311 138.757C199.72 135.652 197.124 133.031 194.648 130.588C193.274 129.236 192.457 127.798 191.427 126.207C190.734 125.042 190.163 123.809 189.725 122.526C188.929 120.474 189.597 118.862 189.636 116.767C189.679 115.54 189.857 114.321 190.167 113.133C190.304 112.607 190.465 111.979 190.623 111.402C190.733 110.978 191.112 110.444 191.129 110.028C191.53 109.745 191.89 109.41 192.201 109.031C192.461 108.548 192.759 107.721 193.316 107.437C194.146 107.013 194.618 107.394 195.235 106.474C195.862 105.625 196.404 104.715 196.852 103.76C197.065 103.255 197.49 102.844 197.614 102.318C197.69 101.991 197.524 101.593 197.567 101.253C197.755 100.273 197.881 99.2812 197.946 98.2848C197.946 97.4366 198.141 96.3 197.975 95.4815C197.822 94.7393 196.984 93.6282 196.592 92.9369C195.933 91.7876 195.363 89.9979 194.176 89.1879C193.223 88.539 191.742 89.5144 190.967 88.6535C190.423 88.0513 189.857 86.3507 189.657 85.5703C189.197 83.7721 188.627 81.2742 187.104 79.9595C186.602 79.5001 186.062 79.083 185.491 78.7126C184.658 78.267 183.768 77.9374 182.845 77.733C182.534 77.5862 182.202 77.4902 181.862 77.4488C181.377 77.4234 180.883 77.487 180.398 77.4488C178.968 77.381 177.628 77.0714 176.173 77.0756C174.645 77.0756 174.011 76.9569 172.718 76.2528C172.46 76.0928 172.191 75.9511 171.913 75.8287C171.569 75.7058 170.948 75.7185 170.726 75.3538C170.232 75.5228 169.716 75.6185 169.194 75.6379C168.48 75.7142 167.965 76.0323 167.207 76.0111C166.45 75.9899 166.08 76.2741 165.399 76.3928C164.729 76.4458 164.056 76.4458 163.386 76.3928C162.501 76.3928 161.208 76.6557 160.408 76.3207C159.821 76.0747 159.655 75.6973 158.897 75.6634C158.235 75.5875 157.565 75.5989 156.906 75.6973C156.616 75.8054 156.341 75.9478 156.085 76.1214C155.783 76.2656 155.578 76.2444 155.272 76.3716C152.807 77.4545 150.61 79.0645 148.838 81.0876C148.093 81.8564 147.679 82.8854 147.685 83.9545C147.707 85.0741 146.907 86.3294 147.379 87.4279C147.315 87.4279 147.005 87.5721 146.953 87.5763C146.932 87.6654 146.911 87.7587 146.894 87.852C145.52 88.0852 144.426 88.8698 143.452 89.7986C142.124 91.0709 140.784 92.0717 140.805 94.0396C140.835 96.3763 140.239 99.7522 142.235 101.33C142.734 101.642 143.197 102.009 143.613 102.424C143.966 102.878 144.132 103.586 144.507 104.078C145.256 105.053 146.209 105.66 146.239 107.047C146.294 108.955 147.8 109.617 148.792 111.093C149.319 111.89 149.421 112.713 149.575 113.599C149.809 114.914 150.238 116.203 150.502 117.522C150.787 118.943 151.315 120.139 151.306 121.551C151.306 123.472 151.255 125.406 151.306 127.327C151.377 128.023 151.501 128.712 151.677 129.388C151.86 130.508 151.919 131.568 152.008 132.7C151.966 132.845 151.928 132.989 151.894 133.125C151.749 133.727 151.528 134.32 151.421 134.927C151.366 135.61 151.366 136.296 151.421 136.98C151.421 138.536 151.345 140.109 151.421 141.645C151.505 142.659 151.827 143.64 152.362 144.507C152.362 144.749 152.396 144.978 152.396 145.169C152.396 146.051 152.638 146.585 152.774 147.412C152.813 147.637 152.685 147.926 152.736 148.15C152.838 148.574 153.068 148.706 153.128 149.206C153.293 150.555 153.774 151.887 153.859 153.324C153.94 154.656 153.664 156.03 153.923 157.349C154.136 158.504 154.231 159.678 154.204 160.852V169.758C154.204 170.95 154.247 172.15 154.319 173.35C153.893 173.728 153.434 174.105 153.042 174.517C152.624 175.029 152.169 175.511 151.681 175.959C150.76 176.731 149.919 177.593 149.17 178.533C147.894 180.021 146.507 181.421 145.23 182.918C144.186 184.231 143.217 185.602 142.328 187.023C141.852 187.723 141.477 188.448 141.005 189.178C140.375 190.123 139.214 191.404 139.12 192.6C139.086 193.05 139.354 193.635 139.431 194.093C139.536 194.639 139.703 195.171 139.928 195.679C140.359 196.533 140.669 197.442 140.848 198.381C140.989 199.092 141.203 199.786 141.486 200.455C141.911 201.727 142.26 202.999 142.635 204.271C142.92 205.247 143.06 206.481 143.486 207.405C143.911 208.33 144.077 209.305 144.456 210.272C144.735 211.083 145.062 211.876 145.434 212.647C145.696 213.114 145.914 213.604 146.085 214.11C146.284 214.724 146.448 215.349 146.575 215.981C146.694 216.702 146.541 217.431 146.681 218.144C146.911 219.323 146.817 220.548 147.107 221.71C147.273 222.38 147.439 223.152 147.651 223.831C147.813 224.331 148.136 224.794 148.264 225.307C148.443 226.019 148.409 226.744 148.613 227.478C148.779 228.116 149.025 228.73 149.345 229.306C149.864 230.124 150.945 230.451 151.472 231.244C151.443 230.892 151.668 230.591 151.719 230.247C151.693 229.883 151.686 229.518 151.698 229.153C151.83 228.615 152.259 227.928 152.191 227.317C152.119 227.864 152.736 228.653 153.102 229.013C153.719 228.509 153.668 227.448 153.872 226.749C153.966 226.435 154.038 226.1 154.149 225.786C154.01 227.025 153.794 228.255 153.502 229.467C153.278 230.229 153.16 231.018 153.149 231.812C153.142 232.743 153.051 233.672 152.876 234.586C152.604 236.104 152.821 237.64 152.532 239.183C152.174 241.075 151.923 243.055 151.345 244.892C149.643 250.341 148.511 256.215 145.217 261.007C144.639 261.856 144.005 262.653 143.477 263.522C143.052 264.243 142.924 264.968 142.405 265.643C142.037 266.072 141.699 266.526 141.392 267C140.052 269.311 138.788 271.665 137.49 274.023C135.648 277.352 136.005 281.067 136.771 284.715C137.273 287.106 138.473 289.333 139.035 291.678C139.421 293.424 139.939 295.138 140.584 296.806C141.265 298.451 141.95 300.198 142.754 301.772C143.199 302.611 143.565 303.49 143.847 304.397C144.12 305.184 144.332 305.991 144.481 306.81C144.715 308.579 144.481 310.534 144.481 312.323C144.481 312.964 144.511 313.596 144.481 314.253C144.452 314.91 144.175 315.436 144.094 316.119C144.047 316.509 144.179 316.921 144.124 317.307C144.026 317.692 143.898 318.069 143.741 318.435C143.267 320.301 143.027 322.218 143.026 324.143C143.043 324.874 142.948 325.603 142.745 326.306C142.63 326.705 142.711 327.044 142.605 327.451C142.418 328.159 141.916 328.681 141.907 329.448C142 329.22 142.134 329.01 142.303 328.829C142.384 329.364 141.716 331.026 141.584 331.518C141.387 332.36 141.116 333.183 140.775 333.978C140.418 334.729 139.843 335.331 139.469 336.064C139.167 336.662 139.38 336.913 138.507 336.739C137.397 336.505 136.627 335.229 135.567 336.026C135.205 336.298 133.963 337.943 134.031 338.431C134.146 339.249 135.907 339.729 136.533 340.009C137.424 340.355 138.357 340.585 139.307 340.691C141.618 335.153 145.192 330.259 146.792 324.516C148.243 319.817 150.055 313.312 155.132 312.217C155.463 312.143 155.801 312.104 156.14 312.099C156.085 311.641 156.093 311.183 156.017 310.623C155.591 307.518 156.017 304.261 156.485 301.203C156.846 298.807 157.383 296.398 157.519 293.994C157.578 292.874 157.48 291.937 157.851 290.962C158.276 289.795 158.804 288.506 159.319 287.318C159.676 286.496 159.612 286.441 160.365 286.279C160.94 286.152 161.612 286.322 162.203 286.279C165.05 286.131 167.778 284.748 170.658 284.808C171.62 284.808 174.143 285.787 174.105 286.928C173.424 287.208 173.807 289.43 173.701 290.079C173.48 291.499 173.389 292.935 173.428 294.371C173.397 296.397 173.242 298.42 172.964 300.427C172.658 303.15 172.445 305.894 171.616 308.515C170.765 311.208 169.871 313.876 169.156 316.611C168.731 318.201 168.833 319.838 168.624 321.45C168.432 322.935 168.341 324.431 168.352 325.928C168.352 326.645 168.382 327.37 168.352 328.087C168.326 328.978 167.995 329.72 167.973 330.632C167.943 332.014 167.973 333.401 167.973 334.784C167.973 335.322 167.973 335.861 167.973 336.404C167.98 336.923 168.075 337.438 168.254 337.926C168.501 338.804 168.475 339.623 168.952 340.45C169.503 341.296 170.294 341.961 171.224 342.358C172.475 342.82 174.181 342.901 175.568 342.892C177.436 342.892 179.309 342.892 181.181 342.892C182.883 342.892 184.483 343.206 186.006 342.371C187.917 341.319 189.206 340.721 191.384 340.73C192.584 340.73 193.776 340.628 194.946 340.912C195.967 341.154 196.975 341.022 198.009 341.255C199.997 341.68 201.367 342.799 202.528 344.415C203.03 345.045 203.369 345.787 203.515 346.578C203.756 347.377 203.756 348.23 203.515 349.029C203.226 350.301 202.55 351.748 201.388 352.541C200.571 353.092 199.805 353.813 198.92 354.279C197.8 354.834 196.581 355.161 195.333 355.242C194.01 355.447 192.672 355.542 191.333 355.526C190.121 355.48 188.946 355.217 187.721 355.166C186.351 355.102 185.036 354.835 183.649 354.805C182.829 354.747 182.012 354.647 181.202 354.504C180.198 354.386 180.734 354.576 179.951 354.716C178.628 354.95 177.641 354.814 176.594 355.785C175.722 356.599 175.598 357.244 175.598 358.397C175.598 359.551 175.726 360.128 176.828 360.717C177.722 361.192 179.198 360.925 180.232 360.925C181.225 360.936 182.216 360.833 183.185 360.616C185.644 360.039 188.236 360.378 190.695 359.818C192.984 359.292 195.218 359.017 197.452 358.372C199.197 357.867 200.856 357.783 202.452 356.917C203.107 356.561 204.035 356.281 204.622 355.823C205.026 355.514 205.222 355.034 205.579 354.674C206.094 354.152 206.758 353.826 207.281 353.304C208.558 352.057 209.183 350.416 209.881 348.834C210.664 347.061 210.243 344.805 209.906 343.028C209.82 342.459 209.6 341.918 209.267 341.448C208.933 340.978 208.493 340.593 207.983 340.322C206.498 339.432 204.788 339.071 203.188 338.486C201.23 337.769 199.494 337.006 197.388 336.76C196.444 336.65 195.529 336.399 194.618 336.336C193.082 336.23 191.542 336.76 190.001 336.73C189.384 336.73 188.21 336.938 187.648 336.696C187.249 336.439 186.881 336.138 186.551 335.797C185.436 334.877 184.121 333.138 183.853 331.692C183.558 329.865 183.752 327.992 184.415 326.264C184.951 325.211 185.241 324.051 185.266 322.871C185.329 320.186 186.81 317.281 187.414 314.673C187.691 313.481 187.912 312.251 188.223 311.072C189.733 304.049 196.393 299.223 202.618 295.945C202.852 295.521 203.094 295.135 203.315 294.715C203.622 294.138 203.8 293.527 204.128 292.959C204.686 292.005 205.549 291.284 206.196 290.389C207.392 288.731 207.639 286.453 208.524 284.621C209.229 283.022 209.798 281.366 210.226 279.672C210.651 278.217 211.17 276.797 211.681 275.372C212.23 273.849 212.438 272.25 212.927 270.707C214.115 267.071 215.003 263.345 215.583 259.565C216.123 255.749 215.949 251.893 216.557 248.077C217.063 244.934 217.561 241.796 218.004 238.645C218.309 236.858 218.494 235.053 218.557 233.242C218.557 231.499 218.868 229.811 218.931 228.08C219.204 220.871 219.65 213.631 219.012 206.422ZM191.057 110.117C190.849 110.432 190.613 110.728 190.35 110.999C190.35 110.758 190.678 110.439 191.057 110.117ZM158.148 209.78C158.148 210.985 157.812 211.812 157.429 212.961C156.91 214.53 156.71 216.176 156.191 217.758C155.766 219.03 155.319 220.256 154.944 221.511C154.944 219.726 155.012 217.932 155.012 216.159C155.012 215.489 155.085 214.781 155.012 214.115C154.978 213.737 154.804 213.398 154.753 213.021C154.702 212.643 154.817 212.304 154.774 211.956C154.489 209.721 153.583 207.77 152.715 205.701C152.349 204.852 152.017 204.004 151.57 203.156C151.404 202.937 151.262 202.701 151.145 202.452C151.051 202.113 151.119 201.71 151.034 201.358C150.881 200.726 150.928 200.332 150.43 199.848C150.03 199.458 149.604 198.97 149.749 198.351C150.068 196.998 151.481 195.968 152.523 195.238C153.566 194.509 154.553 193.889 155.595 193.296C155.974 193.079 156.357 192.897 156.744 192.71C156.872 193.766 157.131 194.865 157.336 195.895C157.855 198.491 157.723 200.985 157.761 203.623C157.761 204.679 158.136 205.645 158.14 206.706C158.144 207.766 158.127 208.788 158.148 209.797V209.78Z" fill="#29299C"/>
<path d="M168.35 96.615C168.069 96.615 167.81 96.9416 167.593 97.0943C167.272 97.3255 166.938 97.5379 166.593 97.7304C165.595 98.2279 164.647 98.8202 163.763 99.4989C163.189 99.9097 162.673 100.395 162.227 100.941C161.756 101.52 161.394 102.18 161.159 102.887C160.946 103.625 160.772 104.631 161.338 105.275C161.61 105.585 161.908 105.831 162.189 106.149C162.507 106.485 162.866 106.782 163.257 107.031C163.793 107.396 164.379 107.681 164.997 107.879C165.656 108.121 166.452 107.998 167.163 107.998H171.699C172.609 107.998 173.516 107.998 174.426 107.998C175.087 108.017 175.745 107.911 176.366 107.684C176.714 107.513 177.076 107.371 177.447 107.26C177.817 107.153 178.162 106.973 178.46 106.73C178.994 106.361 179.485 105.935 179.924 105.458C180.417 104.881 180.26 104.007 180.26 103.303C180.27 102.515 180.216 101.728 180.098 100.949C179.792 99.0875 177.422 98.6253 175.937 98.0782C175.145 97.7856 174.324 97.6032 173.533 97.3106C173.124 97.1485 172.708 97.007 172.286 96.8865C171.273 96.5896 170.201 96.615 168.35 96.615Z" fill="#5C5CB4"/>
<path d="M145.746 89.3704C145.436 89.3704 145.189 89.8497 145.031 90.049C144.634 90.5737 144.279 91.1281 143.968 91.7072C143.762 91.9925 143.595 92.3033 143.47 92.6318C143.444 92.742 143.47 92.8438 143.444 92.9541C143.342 93.2467 143.087 93.4884 142.989 93.8023C142.904 94.1079 142.836 94.418 142.785 94.7311C142.695 95.3688 142.675 96.0144 142.725 96.6565C142.725 96.983 142.81 97.2884 142.84 97.6107C142.861 97.8567 142.84 98.1026 142.84 98.3444C142.9 98.6322 142.98 98.9156 143.078 99.1926C143.155 99.4894 143.18 99.799 143.265 100.096C143.351 100.393 143.619 101.228 143.908 101.368C144.371 101.161 144.782 100.854 145.112 100.469C145.644 99.9051 145.725 99.0611 145.963 98.3486C146.51 96.8781 146.87 95.345 147.035 93.7853C147.103 92.9371 146.908 92.0889 146.921 91.2407C146.921 90.8166 146.814 90.4307 146.801 90.0108C146.801 89.8115 146.886 89.4553 146.78 89.2899C146.58 88.9718 145.929 89.1541 145.61 89.1372C145.776 89.1499 145.891 89.1966 145.746 89.3704Z" fill="#212121"/>
<path d="M193.401 91.6491C193.256 91.6491 193.014 91.8399 192.89 91.9162C192.619 92.0735 192.397 92.3025 192.248 92.5778C191.775 93.4006 191.907 94.5033 192.035 95.3981C192.214 96.6238 192.665 97.8324 192.682 99.0793C192.709 99.5461 192.782 100.009 192.899 100.462C192.94 100.855 192.947 101.251 192.92 101.645C192.916 102.665 192.784 103.681 192.529 104.669C192.416 105.006 192.344 105.354 192.312 105.708C192.312 106.098 192.312 106.493 192.312 106.883C192.312 107.273 192.065 108.579 192.775 108.108C193.242 107.86 193.689 107.577 194.111 107.26C194.482 106.917 194.431 106.573 194.597 106.136C194.894 105.364 195.362 104.686 195.69 103.931C196.082 103.028 196.307 102.027 196.869 101.208C197.26 100.631 197.294 99.8978 197.498 99.2532C197.703 98.513 197.681 97.7287 197.435 97.0012C197.213 96.153 197.167 95.3302 196.843 94.5117C196.643 94.1238 196.417 93.7497 196.167 93.3921C196.016 93.1116 195.845 92.8423 195.656 92.5863C195.522 92.1922 195.255 91.8568 194.9 91.6377C194.545 91.4187 194.125 91.3297 193.711 91.3861C193.375 91.314 192.975 91.1486 193.401 91.6491Z" fill="#212121"/>
<path d="M172.172 98.0177C171.852 98.039 171.53 98.0304 171.211 97.9923C170.869 97.8895 170.508 97.8663 170.155 97.9244C170.036 97.9541 169.862 98.0643 169.73 98.1025C169.388 98.1936 169.062 98.3366 168.764 98.5266C168.359 98.7589 167.987 99.0442 167.658 99.3748C167.156 99.9304 167.373 100.448 167.926 100.893C168.348 101.193 168.835 101.392 169.347 101.474C169.533 101.513 169.727 101.488 169.897 101.404C170.067 101.321 170.205 101.182 170.287 101.012C170.467 101.12 170.608 101.282 170.69 101.475C170.771 101.667 170.79 101.881 170.743 102.085C170.686 102.264 170.572 102.419 170.419 102.526C170.265 102.634 170.079 102.687 169.892 102.679C169.703 102.715 169.51 102.715 169.321 102.679C169.3 102.679 169.19 102.517 169.151 102.488C168.994 102.369 168.704 102.246 168.53 102.123C168.27 101.941 168.105 101.746 167.841 101.97C167.643 102.151 167.496 102.381 167.415 102.636C167.282 103.098 167.223 103.577 167.241 104.057C167.202 104.657 167.274 105.259 167.453 105.834C167.675 106.453 168.109 106.652 168.764 106.763C169.179 106.834 169.602 106.844 170.019 106.792C170.287 106.737 170.496 106.521 170.76 106.449C171.395 106.317 172.054 106.361 172.666 106.576C173.221 106.789 173.819 106.867 174.41 106.801C174.65 106.768 174.88 106.683 175.083 106.551C175.202 106.434 175.329 106.325 175.461 106.224C175.631 106.141 175.783 106.026 175.908 105.885C176.032 105.719 176.053 105.541 176.159 105.372C176.219 105.274 176.325 105.198 176.385 105.096C176.521 104.844 176.612 104.57 176.653 104.286C176.677 104.183 176.678 104.077 176.658 103.974C176.637 103.871 176.595 103.773 176.534 103.688C176.461 103.612 176.312 103.561 176.223 103.484C176.13 103.383 176.029 103.29 175.921 103.204C175.743 103.11 175.548 103.051 175.347 103.031C175.325 103.031 175.257 102.946 175.21 102.933C174.991 102.907 174.769 102.941 174.568 103.031C174.036 103.145 173.768 102.895 173.751 102.386C173.751 102.106 173.666 101.928 173.925 101.852C174.185 101.775 174.483 101.945 174.747 101.983C174.913 102.008 175.087 101.983 175.257 102.008C175.348 102.037 175.444 102.047 175.539 102.037C175.634 102.028 175.727 101.999 175.81 101.953C176.063 101.738 176.261 101.466 176.389 101.16C176.476 100.797 176.483 100.42 176.41 100.054C176.336 99.6874 176.184 99.3416 175.964 99.0398C175.478 98.4596 174.836 98.0311 174.113 97.8057C173.461 97.6393 172.772 97.7147 172.172 98.0177Z" fill="#212121"/>
<path d="M161.8 79.6296C162.625 79.6042 163.438 79.9647 164.234 80.1385C165.289 80.3718 166.408 80.3845 167.442 80.7111C167.783 80.8171 168.106 80.9698 168.459 81.0461C169.038 81.1691 169.616 81.3133 170.199 81.4066C170.493 81.4836 170.794 81.5263 171.097 81.5338C171.395 81.4957 171.727 81.2878 172.029 81.22C172.523 81.114 173.025 81.0843 173.514 80.9528C174.372 80.753 175.244 80.6225 176.122 80.5626C176.685 80.4723 177.256 80.4495 177.824 80.4948C178.103 80.5599 178.39 80.5842 178.675 80.5669C178.841 80.5414 179.101 80.5117 179.246 80.4736C179.39 80.4354 179.539 80.4736 179.531 80.2361C179.531 79.812 178.637 79.5066 178.356 79.3879C176.931 78.8111 175.191 79.0232 173.676 79.0232H171.016C170.598 79.0609 170.177 79.0207 169.774 78.9044C169.202 78.6558 168.608 78.4627 168 78.3276C167.64 78.2958 167.278 78.2958 166.919 78.3276C166.493 78.3276 166.144 78.2174 165.736 78.1962C164.705 78.1904 163.674 78.2528 162.651 78.3828C162.26 78.4209 161.864 78.4549 161.477 78.5312C161.158 78.5948 160.592 78.5609 160.349 78.7984C160.413 79.074 160.796 79.1674 161.013 79.2861C161.241 79.4658 161.512 79.5841 161.8 79.6296Z" fill="#191994"/>
<path d="M182.903 87.8015C182.573 87.7924 182.245 87.7497 181.924 87.6743C181.281 87.6489 180.647 87.6743 179.984 87.6743C179.669 87.6385 179.35 87.6616 179.043 87.7422C178.649 87.8599 178.263 88.0015 177.886 88.1663C177.623 88.3053 177.377 88.4747 177.154 88.6709C176.912 88.8915 176.507 89.095 176.346 89.3749C176.283 89.5104 176.238 89.6528 176.21 89.799C176.171 89.9432 176.086 90.1256 176.056 90.2231C175.923 90.6492 175.879 91.0984 175.929 91.5421C176.095 92.4285 176.899 93.2385 177.516 93.845C178.048 94.3708 178.622 94.8458 179.162 95.3632C179.692 95.789 180.17 96.2743 180.588 96.8094C180.86 97.2335 181.039 97.7467 181.277 98.192C181.584 98.8512 182.038 99.4315 182.605 99.8884C182.961 100.203 183.37 100.453 183.813 100.626C184.239 100.737 185.09 100.541 185.29 100.079C185.434 99.7314 185.413 99.3285 185.553 98.9765C185.663 98.6977 185.787 98.4245 185.924 98.158C186.119 97.7933 186.422 97.5092 186.634 97.1529C186.702 97.0262 186.763 96.8959 186.817 96.7628C186.986 96.4359 187.194 96.1298 187.434 95.8509C187.612 95.5903 187.77 95.3167 187.907 95.0324C188.077 94.7186 188.298 94.4132 188.447 94.0909C188.635 93.5718 188.672 93.0101 188.553 92.4709C188.349 91.6778 187.672 91.0544 187.06 90.5667C186.558 90.168 186.081 89.7694 185.553 89.3919C185.128 89.095 184.796 88.76 184.4 88.4335C183.955 88.1144 183.443 87.8985 182.903 87.8015Z" fill="#191994"/>
<path d="M163.123 86.8419C161.44 86.5047 159.732 86.3034 158.017 86.2397H156.379C156.022 86.2079 155.663 86.2079 155.307 86.2397C154.996 86.3029 154.704 86.438 154.456 86.6341C154.205 86.8164 153.745 86.9818 153.515 87.1812C153.358 87.3254 153.371 87.5289 153.315 87.7198C153.209 87.9913 153.066 88.2468 152.89 88.4789C152.644 88.8623 152.299 89.1718 151.89 89.3737C151.72 89.4671 151.588 89.6112 151.413 89.7088C151.248 89.778 151.092 89.8678 150.949 89.976C150.84 90.1877 150.791 90.4255 150.809 90.663C150.774 90.8385 150.778 91.0198 150.823 91.1932C150.868 91.3666 150.952 91.5275 151.069 91.6639C151.494 92.1134 152.064 92.1643 152.605 92.3849C153.388 92.7072 153.851 93.3476 154.375 94.0007C154.789 94.5566 155.161 95.142 155.49 95.7522C155.816 96.2879 156.084 96.8565 156.289 97.4486C156.43 97.9159 156.493 98.4029 156.477 98.8905C156.46 99.0498 156.46 99.2105 156.477 99.3698C156.502 99.5097 156.604 99.5903 156.579 99.743C156.877 99.5986 157.201 99.5122 157.532 99.4885C157.942 99.4134 158.336 99.27 158.698 99.0644C159.042 98.8305 159.348 98.5443 159.604 98.2162C159.821 97.966 159.834 97.6734 159.991 97.3977C160.146 97.1565 160.342 96.9441 160.57 96.77C160.817 96.5453 160.953 96.2611 161.332 96.2781C161.71 96.295 161.953 96.5453 162.319 96.541C162.778 96.541 162.927 96.189 163.17 95.8667C163.839 95.1086 164.465 94.3143 165.046 93.4875C165.392 93.0307 165.627 92.5012 165.736 91.9395C165.795 91.3797 165.604 90.7945 165.612 90.2219C165.638 89.5358 165.392 88.8671 164.927 88.3602C164.648 88.0303 164.311 87.7543 163.931 87.5459C163.561 87.3635 163.012 87.2448 163.123 86.8419Z" fill="#191994"/>
<path d="M169.517 97.9004C169.294 97.8968 169.079 97.9806 168.917 98.1337C168.696 98.3272 168.465 98.5084 168.224 98.6765C167.96 98.8504 167.679 98.9988 167.705 99.3466C167.705 99.495 167.751 99.6901 167.943 99.7155C168.134 99.741 168.275 99.5332 168.398 99.4314C168.522 99.3296 168.773 99.2236 168.943 99.0794C169.161 98.8648 169.391 98.6624 169.632 98.4729C169.951 98.2721 170.302 98.1286 170.67 98.0488C171.197 97.8972 171.755 97.887 172.287 98.0192C172.5 98.0658 172.913 98.1591 172.785 97.7732C172.73 97.612 172.509 97.5357 172.36 97.4763C171.923 97.2912 171.455 97.1905 170.981 97.1794C170.632 97.1829 170.284 97.2227 169.943 97.2982C169.619 97.3618 169.402 97.5908 169.092 97.6672H169.177" fill="white"/>
<path d="M191.352 91.7326C191.844 91.3761 192.447 91.2035 193.054 91.2449C193.832 91.3254 194.458 91.864 195.181 92.0931C195.628 91.669 195.854 91.2449 195.522 90.6681C195.251 90.2751 194.869 89.9722 194.424 89.7987C194.066 89.6121 193.752 89.3746 193.407 89.1753C193.063 89.0005 192.689 88.8926 192.305 88.8572C192.041 88.8572 191.718 89.1201 191.479 89.2431C190.777 89.5994 190.748 90.333 190.748 91.0286" fill="#7B7BD6"/>
<path d="M148.171 88.0432C147.699 87.5725 147.081 87.2738 146.418 87.1949C146.177 87.1493 145.928 87.1639 145.695 87.2374C145.388 87.3561 145.397 87.4918 145.397 87.7844C145.397 88.5224 145.907 88.5097 146.52 88.5054C146.778 88.4708 147.04 88.5136 147.273 88.6284C147.499 88.7641 147.894 89.3876 148.124 89.3452C148.267 89.0472 148.318 88.7134 148.269 88.3867" fill="#8B8BDD"/>
<path d="M162.643 109.201C162.822 108.917 163.196 108.934 163.494 108.845C163.825 108.72 164.163 108.616 164.507 108.535C164.83 108.476 165.153 108.45 165.477 108.395C165.862 108.281 166.263 108.235 166.664 108.259C167.209 108.357 167.732 108.607 168.281 108.684C168.987 108.766 169.7 108.777 170.408 108.718C170.804 108.696 171.191 108.611 171.591 108.59C171.964 108.58 172.335 108.532 172.698 108.446C173.412 108.268 174.059 107.878 174.825 107.865C175.591 107.852 176.319 108.209 177.068 108.378C177.289 108.429 178.233 108.675 178.225 109.027C178.216 109.379 177.025 109.163 176.859 109.188C176.7 109.223 176.544 109.274 176.395 109.341C175.931 109.494 175.417 109.566 174.94 109.701C174.659 109.782 174.417 109.926 174.14 110.011C173.722 110.127 173.295 110.207 172.864 110.253C171.94 110.359 171.017 110.253 170.094 110.367C169.339 110.469 168.573 110.427 167.834 110.244C167.389 110.159 166.959 110.009 166.558 109.799C166.16 109.484 165.707 109.245 165.222 109.095C164.925 109.056 164.626 109.049 164.328 109.074C164.032 109.125 163.73 109.125 163.434 109.074C163.371 108.9 163.396 108.705 162.643 109.201Z" fill="#282854"/>
<path d="M180.636 88.7703C180.045 88.7177 179.453 88.8417 178.934 89.1266C178.466 89.4477 178.084 89.877 177.819 90.3777C177.283 91.3616 177.393 92.8163 177.853 93.7959C178.202 94.5508 178.976 94.9283 179.653 95.3524C180.083 95.6462 180.573 95.8428 181.087 95.9285C181.601 96.0142 182.128 95.9869 182.631 95.8486C183.001 95.7418 183.346 95.5647 183.648 95.3269C184.099 94.8665 184.525 94.3823 184.925 93.8765C185.159 93.6716 185.35 93.4219 185.486 93.1422C185.622 92.8624 185.7 92.5584 185.716 92.248C185.7 91.8536 185.573 91.4718 185.35 91.1453C185.157 90.791 184.914 90.4667 184.627 90.1826C184.453 90.0482 184.255 89.9475 184.044 89.8857C183.793 89.767 183.597 89.5973 183.333 89.4871C182.78 89.2538 182.176 89.0927 181.631 88.8891C181.325 88.7831 181.01 88.7364 180.699 88.6516C180.389 88.5668 179.968 88.3463 180.636 88.7703Z" fill="#212121"/>
<path d="M159.149 88.6413C158.724 88.6413 158.298 88.6074 157.907 88.6413C157.379 88.6752 156.673 89.1757 156.277 89.4895C155.711 89.939 155.001 90.6939 154.92 91.4403C154.892 92.3818 155.192 93.3037 155.771 94.0486C156.741 95.2912 158.298 95.499 159.796 95.4947C160.851 95.4947 161.779 95.4947 162.4 94.5066C162.707 94.0891 162.942 93.6232 163.094 93.1283C163.14 92.895 163.094 92.6618 163.145 92.4285C163.228 92.1684 163.253 91.8933 163.217 91.6227C163.085 90.8697 162.761 90.1631 162.277 89.5701C161.979 89.2177 161.563 88.9855 161.107 88.917C160.775 88.8533 160.464 88.7388 160.132 88.671C159.932 88.6286 159.366 88.4377 159.154 88.5395L159.149 88.6413Z" fill="#212121"/>
<path d="M188.238 311.054C188.281 310.897 188.315 310.736 188.362 310.583C188.596 309.977 188.795 309.358 188.958 308.73C190.46 309.154 191.251 311.597 191.447 313.026C191.719 315.032 191.872 317.135 192.196 319.137C192.728 322.602 192.523 326.177 192.523 329.71V332.589C192.498 333.013 192.498 333.438 192.523 333.862C192.638 334.71 192.902 334.638 193.693 335.011C194.774 335.524 194.97 335.639 196.17 335.384C196.77 335.258 197.393 335.289 197.978 335.473C199.34 335.804 200.578 335.821 200.872 334.201C200.997 333.213 200.964 332.21 200.774 331.232C200.578 330.189 200.483 329.13 200.489 328.069C200.489 326.796 200.859 325.651 200.85 324.366C200.85 323.255 200.85 322.148 200.85 321.037C200.85 319.765 201.004 318.42 200.778 317.173C200.489 315.604 199.638 314.107 199.382 312.563C199.319 312.178 199.314 311.826 199.221 311.482C199.143 311.315 199.103 311.132 199.103 310.948C199.103 310.763 199.143 310.581 199.221 310.413C199.544 309.256 199.31 307.924 199.476 306.681C199.901 303.505 200.54 300.125 201.935 297.211C202.148 296.787 202.391 296.337 202.637 295.913C196.408 299.204 189.749 304.031 188.238 311.054Z" fill="#282854"/>
<path d="M155.065 312.203C149.988 313.285 148.176 319.79 146.725 324.502C145.125 330.244 141.551 335.139 139.24 340.677H139.342C140.138 340.817 140.585 341.072 141.47 341.063C142.27 341.063 143.074 341.063 143.874 341.063C146.339 341.052 148.799 341.284 151.218 341.754C151.354 341.33 151.218 340.94 151.299 340.525C151.38 340.109 151.754 339.706 151.916 339.252C152.25 338.328 152.64 337.425 153.082 336.547C153.988 334.753 154.358 332.789 155.171 330.948C155.439 330.35 155.716 329.769 155.975 329.176C156.167 328.752 156.273 328.247 156.426 327.793C156.551 327.416 156.635 327.026 156.677 326.631C156.852 325.562 157.443 324.477 157.694 323.404C157.918 322.621 158.073 321.821 158.158 321.012C158.12 320.552 158.12 320.089 158.158 319.629C158.239 319.294 158.452 319.116 158.498 318.705C158.546 318.282 158.546 317.855 158.498 317.432C158.387 316.629 158.109 315.858 157.681 315.168C157.2 314.58 156.772 313.95 156.405 313.285C156.211 312.906 156.089 312.495 156.043 312.072C155.713 312.083 155.386 312.127 155.065 312.203Z" fill="#282854"/>
<path d="M157.565 91.0906C157.284 91.0524 157.233 90.9252 157.028 91.1669C156.909 91.3069 156.65 91.4807 156.603 91.6716C156.552 91.9303 156.803 92.1508 156.99 92.2781C157.286 92.5001 157.632 92.6458 157.999 92.7022C158.173 92.7022 158.254 92.5664 158.335 92.4138C158.385 92.2876 158.407 92.1522 158.399 92.0168C158.392 91.8814 158.356 91.7492 158.292 91.6292C158.237 91.4723 158.101 91.0991 157.896 91.0694" fill="white"/>
<path d="M182.739 91.3185C182.573 91.3044 182.406 91.3355 182.253 91.409C182.101 91.4825 181.967 91.5962 181.863 91.7401C181.802 91.8489 181.762 91.9702 181.745 92.0968C181.727 92.2233 181.733 92.3524 181.762 92.4763C181.791 92.6002 181.843 92.7164 181.913 92.8178C181.984 92.9192 182.073 93.0037 182.174 93.0664C182.438 93.2466 182.746 93.3325 183.057 93.3123C183.367 93.3123 183.351 93.3123 183.518 93.0664C183.828 92.6272 183.844 91.6259 183.311 91.3624V91.4678" fill="white"/>
<path d="M184.713 93.6888C184.313 94.0578 183.726 94.1129 183.266 94.3759C183.135 94.4485 183.03 94.5618 182.969 94.6987C182.908 94.8357 182.892 94.9888 182.926 95.135C183.037 95.487 183.432 95.487 183.743 95.4955C184.343 95.4955 184.9 95.046 185.262 94.5794C185.373 94.4352 185.568 94.0281 185.42 93.833C185.224 93.6624 184.973 93.5688 184.713 93.5701" fill="white"/>
<path d="M158.084 93.8103C157.786 93.8103 157.659 93.3862 157.454 93.2038C157.23 92.9974 156.969 92.8349 156.684 92.7246C156.229 92.5762 155.493 92.5295 155.535 93.2293C155.565 93.7085 155.961 93.9587 156.386 94.1157C156.945 94.3895 157.559 94.5344 158.182 94.5398C158.446 94.5398 158.51 94.4719 158.467 94.1793C158.43 93.9922 158.337 93.8207 158.2 93.6874C158.064 93.5541 157.89 93.4654 157.701 93.4329" fill="white"/>
<path d="M179.044 92.7317C179.044 93.4696 179.835 94.004 180.465 94.1779C180.85 94.2853 181.243 94.3632 181.64 94.4111C182.18 94.4959 182.065 94.7801 181.576 94.7758C180.944 94.8143 180.321 94.6179 179.827 94.2245C179.699 94.0702 179.556 93.9283 179.401 93.8004C179.274 93.7349 179.159 93.6457 179.065 93.5375C179.012 93.399 178.968 93.2574 178.933 93.1134C178.846 92.9501 178.801 92.7681 178.801 92.5833" fill="#7B7BD6"/>
<path d="M162.163 92.4905L162.065 92.516C162.044 92.7916 161.742 93.0079 161.589 93.2157C161.435 93.4828 161.243 93.7258 161.018 93.9367C160.837 94.1166 160.609 94.2416 160.359 94.2972C160.076 94.2753 159.791 94.2753 159.508 94.2972C159.457 94.6365 160.257 94.5177 160.465 94.5177C160.808 94.5541 161.152 94.4585 161.427 94.2505C161.662 94.0045 161.833 93.7045 161.925 93.3769C161.984 93.2157 162.091 93.1097 162.155 92.9528C162.226 92.7997 162.267 92.6339 162.274 92.4651" fill="#7B7BD6"/>
<path d="M183.626 109.94C183.2 109.94 182.711 110.478 182.328 110.665C181.919 110.9 181.492 111.102 181.052 111.271C179.643 111.695 178.073 111.852 176.614 112.12C173.865 112.599 171.176 112.599 168.38 112.599C167.725 112.599 167.057 112.637 166.401 112.599C165.921 112.573 165.908 112.45 165.508 112.34C165.175 112.317 164.84 112.325 164.508 112.366C164.155 112.331 163.806 112.264 163.466 112.166C162.866 112.043 162.249 112.23 161.661 112.124C161.074 112.018 160.313 111.526 159.734 111.276C159.155 111.025 158.73 110.724 158.202 110.427C157.564 110.075 156.926 109.634 156.321 109.287C155.896 109.049 155.538 108.862 155.138 109.206C154.905 109.445 154.755 109.753 154.711 110.084C154.667 110.414 154.73 110.75 154.892 111.042C155.317 111.924 155.841 112.276 155.585 113.316C155.36 114.219 154.977 114.685 155.33 115.665C155.683 116.645 156.479 116.793 157.428 117.162C158.581 117.607 159.308 118.311 160.232 119.083C161.393 120.054 162.853 120.78 164.142 121.552C165.176 122.118 166.291 122.523 167.448 122.752C168.32 122.968 169.312 123.358 170.231 123.15C170.968 122.907 171.755 122.85 172.52 122.985C173.331 123.152 174.161 123.215 174.988 123.172C175.746 123.172 176.737 123.036 177.35 123.549C177.86 123.125 177.933 122.277 178.201 121.717C178.626 120.784 179.09 119.927 179.537 119.011C180.222 117.607 181.703 116.564 183.145 115.958C183.996 115.606 184.643 114.999 185.421 114.541C185.987 114.21 186.417 113.693 186.949 113.307C187.438 112.999 187.87 112.609 188.225 112.153C188.864 111.263 190.723 109.829 190.353 108.527C189.634 108.451 188.455 109.075 187.838 109.333C187.072 109.656 186.349 110.109 185.57 110.393C184.196 110.894 182.817 110.712 181.417 110.949C181.439 111.021 181.447 111.089 183.626 109.94Z" fill="#191994"/>
<path d="M179.78 87.4965C180.131 87.4816 180.479 87.413 180.809 87.2929C181.409 87.1827 182.014 87.0597 182.622 87.0088C183.052 86.9441 183.466 86.8003 183.843 86.5847C184.06 86.4914 183.988 86.4193 184.247 86.5847C184.346 86.6582 184.428 86.7504 184.49 86.8561C184.557 87.038 184.634 87.2164 184.72 87.3905C184.796 87.4922 184.924 87.5728 185.005 87.6661C185.324 88.0266 185.792 89.2904 184.894 88.8366C184.494 88.5969 184.065 88.4074 183.618 88.2726C182.781 88.0765 181.924 87.9811 181.065 87.9884" fill="#191994"/>
<path d="M161.44 87.3247C161.202 86.899 160.875 86.5289 160.482 86.239C160.116 85.9294 159.886 85.4799 159.516 85.1406C158.631 84.3263 157.41 86.0779 156.47 86.2348C156.47 86.8667 157.746 86.6589 158.112 86.7183C158.411 86.7954 158.718 86.8367 159.027 86.8413C159.395 86.7936 159.768 86.8036 160.133 86.871L160.155 87.0024" fill="#191994"/>
<path d="M161.916 100.302C161.635 100.404 160.976 100.472 160.844 100.777C160.767 100.959 160.92 101.226 160.818 101.388C160.669 101.617 160.154 101.591 160.001 101.858C159.944 102.094 159.935 102.34 159.976 102.579C160.02 102.813 160.103 103.039 160.223 103.245C160.358 103.455 160.47 103.68 160.554 103.915C160.554 104.136 159.997 104.471 159.861 104.653C159.244 105.459 160.308 105.696 160.882 105.998C161.052 106.119 161.233 106.226 161.422 106.316C161.683 106.364 161.95 106.364 162.21 106.316C162.763 106.053 161.959 104.997 161.92 104.619C161.93 104.326 161.999 104.037 162.125 103.771C162.252 103.321 162.346 102.868 162.456 102.422C162.549 102.094 162.54 101.745 162.431 101.421C162.38 101.189 162.279 100.97 162.133 100.781C161.98 100.607 161.767 100.501 161.708 100.264C161.746 100.217 161.776 100.217 161.916 100.302Z" fill="#191994"/>
<path d="M180.125 102.224C180.329 102.55 180.55 102.851 180.733 103.191C180.866 103.355 180.954 103.551 180.989 103.759C180.989 104.132 180.538 104.183 180.495 104.505C180.427 105.036 181.55 105.506 181.112 106.053C180.937 106.2 180.716 106.281 180.487 106.282C179.923 106.364 179.354 106.41 178.785 106.422C179.312 105.901 179.946 105.18 180.087 104.433C180.24 103.623 180.163 102.835 180.244 102.02C180.232 102.045 180.214 102.066 180.19 102.081C180.167 102.096 180.14 102.105 180.112 102.105" fill="#191994"/>
<path d="M167.806 83.9411C165.84 84.2689 164.529 82.3025 162.89 81.8928C161.662 82.3025 161.662 83.3393 162.071 84.3508C162.891 84.7605 164.574 84.6669 164.939 85.5798C165.758 87.6281 166.577 87.2184 166.577 93.3634C166.577 95.4117 168.626 90.4957 171.084 90.4957C172.916 90.4957 174.361 92.1344 176 93.3634C176 92.1344 173.951 90.4957 173.132 89.2668C172.313 88.0378 174.361 88.0378 175.59 86.8088C176.573 85.8256 179.277 85.5798 180.916 85.1702L183.374 83.9411C182.554 83.5315 182.097 82.3025 180.916 82.3025C178.458 82.3025 174.771 83.9411 173.951 83.9411C173.132 83.9411 170.264 83.5315 167.806 83.9411Z" fill="#5C5CB4"/>
<path d="M154.682 83.7097C155.771 82.3822 158.137 82.2762 159.681 81.9624C161.158 81.6613 163.226 81.5383 164.558 82.4119C165.322 82.9852 165.928 83.7426 166.319 84.613C166.37 84.7445 166.443 85.0371 166.494 85.1601C166.545 85.2831 166.758 85.4569 166.766 85.6223C166.775 85.7877 166.566 86.0464 166.519 86.2373C166.46 86.513 166.519 86.7759 166.464 87.0516C165.932 87.0813 165.477 86.3857 165.064 86.1143C164.261 85.6798 163.402 85.356 162.511 85.1516C161.105 84.7639 159.661 84.5292 158.205 84.4518C157.55 84.4052 156.894 84.4518 156.235 84.4518C155.912 84.4518 155.035 84.6936 154.865 84.4518C154.89 84.261 154.984 84.1762 154.682 83.7097Z" fill="#7B7BD6"/>
<path d="M185.797 85.6356C185.843 85.1927 185.77 84.7454 185.585 84.3399C185.401 83.9344 185.111 83.5853 184.746 83.3285C184.529 83.1461 184.465 82.9044 184.176 82.7857C183.886 82.6669 183.75 82.7857 183.503 82.7263C182.978 82.5762 182.433 82.5033 181.886 82.51C180.831 82.51 179.21 82.1834 178.27 82.7263C177.419 83.214 176.627 84.3421 176.9 85.3599C177.704 85.6144 178.499 85.2666 179.274 85.1437C180.083 85.0864 180.895 85.0864 181.703 85.1437C182.482 85.1428 183.257 85.2426 184.01 85.4405C184.595 85.5763 185.196 85.6376 185.797 85.6229" fill="#7B7BD6"/>
<path d="M156.823 153.676C157.019 154.198 157.597 155.05 157.861 155.818C157.828 156.508 157.887 157.2 158.036 157.875C158.178 158.257 158.285 158.652 158.355 159.054C158.389 159.478 158.278 159.902 158.329 160.326C158.441 160.817 158.525 161.314 158.58 161.815C158.58 162.599 158.58 163.384 158.58 164.164C158.553 164.683 158.553 165.202 158.58 165.721C158.61 166.018 158.87 166.353 158.857 166.637C158.794 166.885 158.702 167.126 158.585 167.353C158.252 168.505 157.776 169.611 157.168 170.644C156.895 171.107 156.423 171.493 156.108 171.917C155.881 172.264 155.62 172.587 155.329 172.884C154.947 173.248 154.572 173.634 154.168 173.982C153.521 174.546 152.836 175.093 152.236 175.704C151.818 176.217 151.363 176.699 150.874 177.146C149.953 177.918 149.112 178.781 148.364 179.72C147.087 181.209 145.7 182.608 144.424 184.105C143.38 185.418 142.411 186.789 141.522 188.211C141.045 188.91 140.671 189.636 140.199 190.365C139.569 191.311 138.407 192.592 138.314 193.788C138.28 194.237 138.548 194.822 138.624 195.28C138.73 195.826 138.897 196.358 139.122 196.866C139.553 197.72 139.862 198.629 140.041 199.568C140.183 200.279 140.397 200.974 140.679 201.642C141.105 202.914 141.454 204.186 141.828 205.459C142.113 206.434 142.254 207.668 142.679 208.593C143.105 209.517 143.271 210.493 143.649 211.46C143.929 212.27 144.255 213.063 144.628 213.835C144.889 214.302 145.107 214.791 145.279 215.298C145.471 215.916 145.628 216.545 145.747 217.181C145.866 217.902 145.713 218.631 145.854 219.344C146.083 220.523 145.99 221.748 146.279 222.91C146.445 223.58 146.611 224.352 146.824 225.031C146.985 225.531 147.309 225.994 147.436 226.507C147.615 227.219 147.581 227.944 147.785 228.678C147.951 229.316 148.197 229.93 148.517 230.506C149.036 231.325 150.117 231.651 150.645 232.444C150.615 232.092 150.84 231.791 150.891 231.448C150.865 231.083 150.858 230.718 150.87 230.353C151.002 229.815 151.432 229.128 151.364 228.517C151.291 229.064 151.908 229.853 152.274 230.213C152.891 229.709 152.84 228.648 153.045 227.949C153.249 227.249 153.347 226.587 153.84 226.095C154.074 226.341 153.981 226.689 154.266 226.901C154.083 223.75 154.266 220.54 154.266 217.372C154.266 216.702 154.338 215.993 154.266 215.328C154.232 214.95 154.057 214.611 154.006 214.233C153.955 213.856 154.07 213.517 154.027 213.169C153.742 210.934 152.836 208.983 151.968 206.913C151.602 206.065 151.27 205.217 150.823 204.369C150.658 204.149 150.515 203.913 150.398 203.665C150.304 203.326 150.372 202.923 150.287 202.571C150.134 201.939 150.181 201.544 149.683 201.061C149.283 200.671 148.858 200.183 149.002 199.564C149.321 198.211 150.734 197.18 151.777 196.451C152.819 195.721 153.806 195.102 154.849 194.508C155.759 193.991 156.721 193.66 157.597 193.067C160.21 191.34 162.278 188.376 165.401 187.553C167.482 186.989 169.18 185.857 170.984 184.733C171.967 184.168 172.911 183.538 173.809 182.846C174.315 182.422 175.043 182.269 175.605 181.9C176.311 181.438 177.039 180.971 177.732 180.484C178.507 179.932 179.123 179.211 179.86 178.601C180.596 177.99 181.038 177.205 181.791 176.624C182.513 176.108 183.197 175.541 183.838 174.928C184.293 174.466 185.059 173.935 185.366 173.354C185.445 173.126 185.557 172.911 185.697 172.714C186.003 172.424 186.324 172.151 186.659 171.896C187.68 170.794 188.426 169.47 188.838 168.028C189.289 166.565 188.506 165.364 188.531 163.884C188.531 162.811 188.348 161.594 188.599 160.542C188.957 159.045 189.846 157.735 190.301 156.272C191.259 153.303 190.54 150.262 191.11 147.268C191.425 145.601 191.803 143.799 191.667 142.098C191.276 137.196 186.808 134.515 184.059 130.953C182.98 129.471 181.722 128.127 180.315 126.95C179.766 126.525 179.141 126.475 178.485 126.258C177.102 125.804 175.681 125.686 174.252 125.436C173.89 125.512 173.915 124.884 173.583 124.804C173.064 124.672 172.435 124.617 171.881 124.503C170.558 124.223 169.162 124.333 167.818 124.142C167.471 124.098 167.121 124.081 166.771 124.091C166.07 124.08 165.37 124.141 164.682 124.273C164.127 124.324 163.57 124.338 163.014 124.316C162.152 124.421 161.299 124.588 160.461 124.816C159.801 124.965 159.112 124.935 158.465 125.088C158.136 125.199 157.822 125.35 157.529 125.537C157.156 125.69 156.761 125.788 156.359 125.826C155.727 125.998 155.149 126.326 154.678 126.78C153.827 127.548 153.296 128.722 152.798 129.749C152.077 131.205 151.506 132.731 151.096 134.303C150.951 134.906 150.73 135.499 150.623 136.106C150.568 136.789 150.568 137.475 150.623 138.158C150.623 139.715 150.547 141.288 150.623 142.824C150.717 145.016 152.423 146.874 153.419 148.723C153.804 149.428 154.239 150.106 154.721 150.75C155.202 151.445 156.529 152.892 156.823 153.676Z" fill="#5C5CB4"/>
<path d="M166.988 93.087C166.988 92.6629 167.337 92.6884 167.597 92.4678C167.841 92.228 168.043 91.9483 168.192 91.6408C168.395 91.3486 168.642 91.0896 168.924 90.8732C169.163 90.6442 169.235 90.3855 169.512 90.1904C170.567 89.461 172.213 90.1904 173.137 90.7757C174.15 91.4371 175.064 92.2381 175.852 93.1549C176.571 93.9649 177.26 94.7877 177.979 95.6104C178.383 96.0812 179.256 98.2738 178.094 98.401C177.413 98.4731 176.392 97.6079 175.873 97.2262C175.066 96.6995 174.118 96.4303 173.154 96.4544C172.154 96.4544 171.084 96.231 169.855 96.231C169.445 96.231 168.955 96.082 168.626 96.231C168.344 96.2694 168.216 96.231 167.806 96.6407C167.397 97.0504 167.276 97.0764 166.987 97.46C166.54 97.3837 164.721 98.6102 164.529 98.2794C164.282 97.8553 164.939 96.723 164.939 96.231C164.939 95.913 165.758 95.3201 165.758 95.0021C165.787 94.3664 166.409 93.7458 166.567 93.1294C166.706 93.1031 166.847 93.0889 166.988 93.087Z" fill="#7B7BD6"/>
<path d="M150.105 198.383C149.82 197.989 148.594 198.052 148.165 198.154C147.637 198.281 147.45 199.185 147.314 199.698C146.888 201.335 147.905 202.467 147.939 204.015C147.959 205.187 148.136 206.351 148.467 207.476C148.548 207.642 148.611 207.817 148.654 207.997C148.671 208.28 148.671 208.563 148.654 208.846V212.179C148.654 213.659 148.875 215.067 148.897 216.547C148.897 217.349 148.641 217.574 148.314 218.32C148.036 218.934 147.905 219.603 147.931 220.275C147.866 220.707 147.927 221.149 148.105 221.547C148.237 221.772 148.684 222.15 148.68 222.442C148.68 222.633 148.45 222.726 148.403 222.909C148.369 223.155 148.39 223.406 148.467 223.642C148.558 224.193 148.679 224.738 148.829 225.275C149.002 225.802 149.204 226.318 149.433 226.823C149.634 227.139 149.778 227.488 149.858 227.854C149.846 228.11 149.854 228.367 149.884 228.621C150.37 228.263 150.8 227.834 151.16 227.349C151.462 226.959 151.769 226.671 152.092 226.306C152.781 226.437 152.275 227.79 153.19 227.684C153.19 227.078 153.977 226.229 154.262 225.721C154.603 225.118 155.177 224.33 155.173 223.621C155.173 223.04 154.917 222.553 154.922 221.925C154.926 221.297 154.922 220.653 154.922 220.004C154.922 219.177 154.692 218.452 154.675 217.642C154.675 216.988 154.675 216.327 154.675 215.674C154.675 214.206 154.215 212.803 154.194 211.348C154.194 211.026 154.194 210.703 154.194 210.385C154.172 210.118 154.108 209.857 154.007 209.609C153.957 209.062 153.878 208.519 153.769 207.981C153.386 206.789 153.403 205.538 152.994 204.363C152.794 203.874 152.528 203.414 152.203 202.997C152.003 202.73 151.705 202.48 151.526 202.209C151.347 201.937 151.382 201.784 151.245 201.543C150.965 200.979 150.723 200.396 150.522 199.8C150.318 199.282 149.82 198.968 150.105 198.383Z" fill="#191994"/>
<path opacity="0.8" d="M176.381 100.836C176.735 100.606 177.105 100.4 177.487 100.221L178.666 99.7456C180.833 99.0954 183.02 98.5299 185.227 98.0493C187.444 97.5997 189.635 97.0696 191.852 96.6116C194.069 96.1535 196.286 95.7337 198.516 95.3605L205.179 94.1306C209.63 93.3361 214.089 92.6095 218.557 91.9507L225.28 91.0559C226.399 90.9159 227.514 90.742 228.637 90.6318C229.768 90.5235 230.907 90.5051 232.041 90.5766C231.889 90.6833 231.723 90.7676 231.547 90.8269C231.723 90.7676 231.889 90.6833 232.041 90.5766C230.913 90.5087 229.782 90.53 228.658 90.6403C227.535 90.759 226.416 90.9371 225.297 91.0644L218.578 91.9719C214.11 92.6392 209.652 93.3743 205.205 94.1772L198.541 95.4198C196.314 95.793 194.095 96.2171 191.882 96.6921C189.674 97.1586 187.478 97.6888 185.266 98.1426C183.053 98.5963 180.874 99.207 178.713 99.8601L177.538 100.339C177.155 100.512 176.785 100.714 176.432 100.942L176.381 100.836Z" fill="#212121"/>
<path opacity="0.8" d="M213.589 97.7156L195.692 98.797C192.714 98.9836 189.735 99.1872 186.757 99.4926L182.302 100.001C181.562 100.083 180.827 100.209 180.102 100.379C179.741 100.472 179.386 100.585 179.038 100.718C178.69 100.845 178.361 101.023 178.064 101.244V101.197C178.843 101.253 179.034 102.22 179.766 102.3L181.821 102.491L185.936 102.877L190.05 103.263C191.42 103.403 192.786 103.581 194.148 103.789C195.509 103.996 196.875 104.187 198.233 104.408C199.59 104.628 200.952 104.857 202.305 105.112C203.658 105.366 205.011 105.634 206.351 105.96L210.342 107.025C211.468 107.416 212.565 107.886 213.623 108.433C212.563 107.887 211.466 107.418 210.338 107.029L206.347 105.969C205.007 105.646 203.654 105.392 202.3 105.12C200.947 104.849 199.59 104.633 198.228 104.421C196.867 104.209 195.501 104.043 194.144 103.806C192.786 103.568 191.416 103.424 190.046 103.288L185.931 102.907L181.817 102.525L179.757 102.338C179.004 102.236 178.804 101.27 178.081 101.24H178.009L178.064 101.193C178.365 100.968 178.697 100.788 179.051 100.659C179.401 100.525 179.757 100.411 180.119 100.315C180.848 100.141 181.587 100.014 182.332 99.9336L186.782 99.4205C189.761 99.1066 192.739 98.8988 195.718 98.708L213.615 97.6011L213.589 97.7156Z" fill="#212121"/>
<path opacity="0.8" d="M125.271 96.7066C126.593 96.3067 127.971 96.1261 129.352 96.1722C132.462 95.9889 135.582 96.1182 138.666 96.5581L143.295 97.101L145.614 97.3724L147.916 97.7456L152.512 98.5217C154.044 98.7974 155.592 98.9458 157.107 99.3233C157.865 99.4971 158.618 99.7092 159.358 99.9509C159.724 100.074 160.094 100.197 160.456 100.337C160.818 100.477 161.179 100.617 161.549 100.74C162.286 100.998 162.996 101.317 163.702 101.639C164.409 101.961 165.115 102.288 165.796 102.669L165.945 102.75L165.775 102.72C164.153 102.464 162.514 102.335 160.873 102.334C159.235 102.3 157.592 102.334 155.95 102.262C152.668 102.09 149.386 101.956 146.104 101.859C142.819 101.762 139.538 101.728 136.253 101.66C132.968 101.592 129.684 101.588 126.403 101.775C123.31 101.707 120.221 102.016 117.204 102.695C120.221 102.013 123.31 101.701 126.403 101.766C129.682 101.574 132.966 101.531 136.253 101.639C139.538 101.702 142.823 101.728 146.104 101.825C149.384 101.923 152.669 102.05 155.95 102.216C157.592 102.271 159.235 102.25 160.877 102.283C162.521 102.283 164.163 102.411 165.787 102.665L165.766 102.716C165.09 102.339 164.388 102.008 163.677 101.694C162.966 101.38 162.26 101.058 161.528 100.799C161.162 100.676 160.796 100.536 160.435 100.375C160.073 100.214 159.703 100.112 159.337 99.9933C158.596 99.753 157.849 99.5452 157.094 99.3699C155.584 99.0052 154.031 98.8483 152.503 98.5726L147.899 97.8177L145.597 97.4487L143.283 97.1773L138.649 96.643C135.57 96.2072 132.455 96.0822 129.352 96.2698C127.987 96.2327 126.626 96.4204 125.322 96.8253L125.271 96.7066Z" fill="#212121"/>
<path opacity="0.8" d="M164.223 103.21C158.458 103.21 152.696 102.993 146.935 103.21C144.055 103.287 141.182 103.535 138.332 103.952L129.77 105.114L119.895 107.756C116.666 108.839 113.495 110.079 110.38 111.475C109.25 111.873 108.174 112.409 107.176 113.07C108.174 112.408 109.25 111.87 110.38 111.471C113.486 110.067 116.66 108.818 119.89 107.73L129.762 105.071L138.327 103.892C141.179 103.471 144.053 103.219 146.935 103.137C152.696 102.921 158.462 103.137 164.223 103.116V103.21Z" fill="#212121"/>
<path opacity="0.8" d="M156.737 83.8326C154.941 81.9072 153.231 79.9012 151.512 77.8953C149.793 75.8893 148.056 73.9214 146.261 72.0003C144.44 70.0964 142.455 68.3552 140.329 66.7966C138.207 65.2338 135.965 63.8399 133.623 62.6277C135.97 63.8325 138.218 65.2193 140.346 66.7754C142.481 68.3264 144.475 70.062 146.303 71.9621C148.108 73.879 149.856 75.8469 151.58 77.8401C153.303 79.8334 155.018 81.8309 156.818 83.7478L156.737 83.8326Z" fill="#212121"/>
<path opacity="0.8" d="M160.577 85.4081C160.121 83.3555 159.632 81.3071 159.232 79.2375C159.13 78.7201 159.036 78.2027 158.951 77.6853C158.853 77.1678 158.747 76.6504 158.687 76.1288C158.562 75.0812 158.553 74.023 158.662 72.9735C159.174 70.3181 159.941 67.7177 160.951 65.2083C159.955 67.722 159.203 70.3252 158.705 72.982C158.602 74.0278 158.615 75.0816 158.743 76.1246C158.807 76.6462 158.913 77.1594 159.015 77.6768C159.117 78.1942 159.202 78.7116 159.304 79.229C159.73 81.2901 160.215 83.3342 160.683 85.3911L160.577 85.4081Z" fill="#212121"/>
<path opacity="0.8" d="M180.128 61C180.605 61.4605 181.004 61.9947 181.311 62.5819C181.618 63.1706 181.82 63.8075 181.91 64.4649C182.576 66.4994 182.748 68.662 182.413 70.7755C182.192 73.6656 181.731 76.5325 181.034 79.3465C180.702 80.7602 180.304 82.1527 179.838 83.5239C179.387 84.898 178.911 86.2678 178.532 87.6631H178.481C178.515 87.5444 178.613 87.4977 178.694 87.4383C178.775 87.379 178.868 87.345 178.953 87.3026C179.136 87.2221 179.319 87.15 179.498 87.0779L180.047 86.8658C180.229 86.8052 180.403 86.7195 180.562 86.6114C181.293 85.3268 181.937 83.995 182.489 82.6248C184.437 79.0562 186.635 75.6294 189.067 72.3701C189.667 71.5473 190.31 70.7585 190.918 69.9443C191.527 69.13 192.11 68.2987 192.667 67.4506C193.785 65.7532 194.803 63.9931 195.718 62.179C194.806 63.9948 193.792 65.7576 192.68 67.459C192.113 68.3072 191.53 69.1399 190.931 69.957C190.327 70.7712 189.684 71.5601 189.084 72.3828C186.659 75.6454 184.467 79.0751 182.527 82.646C181.977 84.0184 181.336 85.353 180.608 86.641C180.443 86.7526 180.265 86.8424 180.077 86.9082L179.528 87.1203C179.345 87.1924 179.166 87.2602 178.987 87.345C178.809 87.4299 178.613 87.5147 178.562 87.6631H178.506C178.881 86.2593 179.357 84.8895 179.804 83.5154C180.251 82.1413 180.655 80.7503 180.987 79.3423C181.682 76.5329 182.138 73.6699 182.349 70.784C182.683 68.6856 182.509 66.5381 181.842 64.52C181.758 63.8755 181.564 63.25 181.268 62.671C180.966 62.0942 180.572 61.57 180.102 61.1188L180.128 61Z" fill="#212121"/>
</g>
<defs>
<clipPath id="clip0">
<rect width="124.865" height="300" fill="white" transform="translate(107.176 61)"/>
</clipPath>
</defs>
</svg>
