<svg width="246" height="422" viewBox="0 0 246 422" fill="none" xmlns="http://www.w3.org/2000/svg">
<path d="M1.37192 265.835C4.89539 316.926 31.8131 365.955 73.0816 396.465C88.4949 407.856 106.053 416.844 124.97 420.055C143.887 423.267 164.257 420.287 180.144 409.57C197.109 398.129 207.438 379.291 215.488 360.522C226.157 335.651 234.059 308.904 232.403 281.905C230.007 242.81 207.092 206.553 175.573 183.159C150.351 164.385 111.518 145.808 79.0216 148.394C52.3855 150.512 23.9409 179.525 12.5996 201.682C2.54806 221.318 -0.130367 244.061 1.37192 265.835Z" fill="#FF4949" fill-opacity="0.5"/>
<path d="M11.0186 184.515C12.6148 207.943 19.8199 232.834 38.6034 247.008C56.4234 260.458 80.465 261.35 102.816 261.69C124.659 262.024 146.729 262.335 168.072 257.71C189.416 253.086 210.285 243.029 223.825 225.924C242.475 202.398 244.363 170.198 245.47 140.23C246.681 107.361 247.318 72.2652 229.775 44.38C215.809 22.2176 191.368 7.61503 165.567 2.80826C145.745 -0.875623 123.028 0.188171 103.923 6.99449C90.9069 11.6289 83.0199 23.2469 73.1166 32.4221C46.5201 57.047 27.0546 88.5126 17.3885 123.441C11.8385 143.298 9.68509 163.945 11.0186 184.515Z" fill="#FFD1D1"/>
<g clip-path="url(#clip0)">
<path opacity="0.8" d="M163.748 356.573C164.21 357.039 164.758 357.412 165.362 357.671C165.228 357.51 165.083 357.358 164.929 357.215C164.619 356.936 164.083 356.823 163.748 356.573Z" fill="#191994"/>
<path opacity="0.8" d="M160.291 261.507C158.947 262.174 158.278 264.179 158.278 265.518C154.318 287.883 156.192 310.253 146.032 330.705C146.802 332.523 147.736 334.268 148.822 335.918C149.555 336.987 150.48 337.835 151.031 339.002C151.462 339.844 151.967 340.647 152.541 341.4C153.033 342.071 153.584 342.675 154.017 343.361C154.45 344.048 154.731 344.768 155.149 345.44C156.192 347.107 157.806 346.838 159.577 347.21C160.537 347.422 161.517 347.522 162.5 347.509C163.164 347.509 164.138 347.313 164.768 347.509C165.235 347.661 165.609 348.142 166.047 348.382C166.847 348.844 167.751 349.095 168.675 349.113C169.29 349.054 169.959 348.588 170.52 348.358C170.879 348.28 171.233 348.176 171.578 348.049C171.878 347.853 171.927 347.559 172.173 347.333C172.862 346.661 174.608 347.25 175.519 347.22C176.642 347.184 177.761 347.06 178.864 346.847C179.022 346.141 178.682 345.671 178.279 345.121C177.561 344.141 176.995 343.16 176.35 342.179C175.706 341.199 174.298 340.855 173.162 340.424C172.414 340.14 172.06 340.007 171.44 340.468C169.718 341.743 167.843 341.282 166.367 340.027C165.324 339.134 164.197 338.168 163.184 337.222C162.322 336.489 161.5 335.71 160.724 334.888C160.43 334.518 160.156 334.133 159.902 333.736C159.506 333.128 159.156 332.492 158.854 331.833C158.396 330.808 157.791 329.519 157.757 328.401C157.722 327.283 157.757 326.106 157.757 324.968C157.796 324.119 158.002 323.286 158.362 322.516C158.751 321.472 158.972 320.388 159.42 319.363C159.769 318.584 159.877 317.853 160.178 317.122C160.812 315.548 161.373 313.93 162.111 312.376C162.839 310.92 163.476 309.422 164.02 307.889C164.566 306.256 165.004 304.555 165.678 302.986C166.106 302.005 166.712 301.098 167.154 300.112C167.626 298.674 167.969 297.197 168.178 295.699C168.333 294.558 168.584 293.431 168.926 292.33C169.452 290.07 170.274 287.883 170.81 285.637C170.929 284.825 170.95 284.002 170.874 283.185C170.84 281.651 170.53 280.243 170.702 278.669C170.884 277.012 170.766 275.354 170.918 273.702C171.095 271.819 171.479 269.956 171.789 268.092C172.119 266.097 172.247 264.072 172.562 262.076C172.914 260.244 173.144 258.392 173.25 256.53C173.275 255.549 173.329 254.569 173.403 253.588C169.846 257.379 165.309 260.119 160.291 261.507Z" fill="#191994"/>
<path d="M160.291 261.508C158.947 262.175 158.278 264.18 158.278 265.519C154.318 287.884 156.192 310.253 146.032 330.706C146.802 332.524 147.736 334.268 148.822 335.918C149.555 336.987 150.48 337.836 151.031 339.003C151.462 339.845 151.967 340.648 152.541 341.4C153.033 342.072 153.584 342.675 154.017 343.362C154.45 344.048 154.731 344.769 155.149 345.441C156.192 347.108 157.806 346.838 159.577 347.211C160.537 347.423 161.517 347.523 162.5 347.51C163.164 347.51 164.138 347.314 164.768 347.51C165.235 347.662 165.609 348.143 166.047 348.383C166.847 348.844 167.751 349.096 168.675 349.114C169.29 349.055 169.959 348.589 170.52 348.358C170.879 348.28 171.233 348.177 171.578 348.05C171.878 347.853 171.927 347.559 172.173 347.334C172.862 346.662 174.608 347.25 175.519 347.221C176.642 347.185 177.761 347.06 178.864 346.848C179.022 346.142 178.682 345.671 178.279 345.122C177.561 344.141 176.995 343.161 176.35 342.18C175.706 341.199 174.298 340.856 173.162 340.425C172.414 340.14 172.06 340.008 171.44 340.469C169.718 341.744 167.843 341.283 166.367 340.027C165.324 339.135 164.197 338.169 163.184 337.223C162.322 336.49 161.5 335.711 160.724 334.889C160.43 334.519 160.156 334.134 159.902 333.736C159.506 333.128 159.156 332.493 158.854 331.834C158.396 330.809 157.791 329.519 157.757 328.401C157.722 327.283 157.757 326.106 157.757 324.969C157.796 324.12 158.002 323.287 158.362 322.517C158.751 321.473 158.972 320.389 159.42 319.364C159.769 318.584 159.877 317.854 160.178 317.123C160.812 315.549 161.373 313.931 162.111 312.377C162.839 310.921 163.476 309.423 164.02 307.89C164.566 306.257 165.004 304.556 165.678 302.986C166.106 302.006 166.712 301.099 167.154 300.113C167.626 298.675 167.969 297.198 168.178 295.7C168.333 294.558 168.584 293.432 168.926 292.331C169.452 290.071 170.274 287.884 170.81 285.638C170.929 284.826 170.95 284.003 170.874 283.186C170.84 281.651 170.53 280.244 170.702 278.67C170.884 277.013 170.766 275.355 170.918 273.703C171.095 271.82 171.479 269.956 171.789 268.093C172.119 266.097 172.247 264.072 172.562 262.077C172.914 260.245 173.144 258.392 173.25 256.531C173.275 255.55 174.953 238.535 175.027 237.569C171.464 241.315 165.147 260.218 160.291 261.508Z" fill="#191994"/>
<path opacity="0.8" d="M115.599 293.418C115.814 293.129 116.069 292.872 116.356 292.653C117.07 292.068 117.913 291.661 118.816 291.467C119.402 291.451 119.984 291.553 120.529 291.766C121.265 291.947 121.919 292.37 122.384 292.967C122.792 293.379 123.274 293.771 123.746 294.173C122.925 288.927 122.398 283.567 120.051 278.889C117.825 283.475 116.323 288.376 115.599 293.418Z" fill="#191994"/>
<path d="M115.599 293.418C115.814 293.129 116.069 292.872 116.356 292.653C117.07 292.068 117.913 291.661 118.816 291.467C119.402 291.451 119.984 291.553 120.529 291.766C121.265 291.947 121.919 292.37 122.384 292.967C122.792 293.379 123.274 293.771 123.746 294.173C122.925 288.927 122.398 283.567 120.051 278.889C117.825 283.475 116.323 288.376 115.599 293.418Z" fill="#191994"/>
<path d="M185.498 89.2251C185.143 87.9453 184.558 86.5919 184.543 85.3023C184.515 84.9462 184.436 84.596 184.307 84.2628C184.265 83.9196 184.246 83.5738 184.253 83.2281C184.22 82.6799 184.013 82.1564 183.662 81.7325C183.225 81.3746 182.467 81.3452 181.985 81.0166C181.538 80.684 181.146 80.2836 180.823 79.83C180.14 78.9425 179.839 77.9471 179.308 77.0007C178.777 76.0543 177.906 75.5296 177.256 74.7892C176.179 73.5633 175.633 72.1021 174.334 71.038C173.861 70.6474 173.34 70.3178 172.784 70.0573C172.27 69.8013 171.693 69.6959 171.121 69.7533L170.176 69.4444C170.096 69.4395 170.015 69.4395 169.935 69.4444C169.625 69.4738 169.507 69.616 169.236 69.6896C168.546 69.7943 167.846 69.8157 167.15 69.7533C166.329 69.7533 165.674 69.4983 164.907 69.4493C164.139 69.4003 163.431 69.4493 162.678 69.4493C161.09 69.4085 159.508 69.2346 157.95 68.9295C157.576 68.856 157.226 68.704 156.867 68.6255C156.508 68.547 156.262 68.6255 155.967 68.5716C155.671 68.5176 155.73 68.3411 155.499 68.2872C155.268 68.2332 155.042 68.2872 154.801 68.2872C154.395 68.2073 153.994 68.1042 153.6 67.9782C153.043 67.7789 152.47 67.6264 151.888 67.5222C151.268 67.5222 150.594 67.9733 150.028 68.2136C149.621 68.4302 149.231 68.6778 148.862 68.954C148.532 69.1502 148.178 69.1796 147.878 69.3855C147.696 69.5032 147.558 69.7092 147.386 69.8367C146.935 70.1525 146.508 70.4999 146.107 70.8762C144.409 72.4208 142.845 74.3969 142.318 76.5839C142.072 77.6234 140.965 78.6826 140.163 79.472C139.361 80.2615 138.195 80.6047 137.393 81.3158C136.832 81.8061 136.694 82.7868 135.828 82.8702C135.804 83.4046 135.474 83.689 135.479 84.2922C135.484 84.8953 135.479 85.4739 135.479 86.0672C135.488 87.3103 135.379 88.5515 135.154 89.7743C135.041 90.4019 134.736 90.8678 134.874 91.5641C134.977 92.0838 135.154 92.5153 135.248 93.1038C135.504 94.7121 136.158 96.2812 136.424 97.8749C137.082 98.0195 137.719 98.2486 138.318 98.5565C138.588 98.6171 138.832 98.7603 139.016 98.966C139.201 99.1717 139.316 99.4297 139.346 99.7039C139.522 100.875 139.621 102.056 139.641 103.239C139.641 105.588 139.641 107.937 139.641 110.286C139.663 111.752 139.586 113.218 139.41 114.674C139.248 115.905 139.371 117.013 138.982 118.224C138.544 119.588 138.229 120.936 137.378 122.074C136.527 123.211 136.256 124.462 135.779 125.8C135.331 127.051 134.692 128.306 134.347 129.586C134.148 130.238 133.848 130.855 133.457 131.415C133.063 132.111 132.94 132.856 132.512 133.558C131.644 135.084 131.028 136.74 130.687 138.461C129.855 142.08 128.901 145.61 128.94 149.298C128.94 150.622 128.62 151.892 128.63 153.221C128.675 154.532 128.599 155.845 128.404 157.143C128.192 158.433 128.34 159.85 128.34 161.159V165.764C128.34 168.402 128.296 170.952 128.069 173.57C127.995 174.414 128.094 175.247 128.069 176.086C128.04 176.806 127.853 177.478 127.779 178.189C127.69 179.067 127.779 179.94 127.779 180.818C127.744 181.837 127.489 182.823 127.454 183.848C127.395 185.515 127.454 187.079 127.238 188.751C127.016 190.556 127.198 192.355 126.952 194.145C126.672 196.224 126.544 198.303 126.342 200.387C126.14 202.471 126.519 204.58 126.209 206.63C125.86 208.988 125.973 211.45 125.466 213.784C124.866 216.559 124.448 219.369 123.99 222.174C123.567 224.665 123.188 227.185 122.647 229.651C122.155 231.824 121.958 234.065 121.481 236.227C120.807 239.257 119.789 242.249 118.854 245.22C118.17 247.402 117.658 249.604 116.93 251.771C116.551 252.894 116.226 254.223 115.587 255.204C114.553 256.854 113.661 258.587 112.92 260.387C112.512 261.367 112.039 262.171 111.714 263.152C111.578 263.621 111.414 264.081 111.222 264.53C110.381 266.261 109.117 267.825 108.142 269.497C107.69 270.277 107.611 271.164 107.198 271.949C106.886 272.52 106.613 273.112 106.381 273.719C106.041 274.626 105.51 275.426 105.18 276.352C104.752 277.578 104.3 278.804 103.847 280.035C101.928 285.188 100.004 290.332 98.8531 295.726C98.2774 298.423 97.6476 301.12 97.0867 303.797C96.7866 305.224 96.3093 306.587 96.0338 308.029C95.8716 309.308 95.6268 310.576 95.3007 311.824C94.5883 313.981 94.0357 316.187 93.6475 318.424C93.5098 319.224 93.4753 319.964 93.2834 320.763C93.1899 321.151 93.185 321.514 93.0768 321.906C92.8821 322.401 92.6519 322.881 92.388 323.343C92.0534 324.117 91.9599 324.912 91.581 325.681C91.2022 326.451 90.9365 327.251 90.597 328.074C90.2575 328.898 89.9033 329.81 89.485 330.644C88.7887 331.897 87.9118 333.042 86.8823 334.042C85.8228 335.271 84.6715 336.419 83.4381 337.474C82.7108 338.11 81.9434 338.698 81.1404 339.235C80.0265 339.974 78.9524 340.771 77.9226 341.623C76.9878 342.344 76.2694 343.29 75.3346 344.006C74.4084 344.669 73.5198 345.383 72.6727 346.144C71.6887 347.085 70.4537 347.693 69.3713 348.512C68.8055 348.939 67.9248 349.596 67.6738 350.219C67.2654 350.219 66.4881 350.959 66.1289 351.101C64.9844 351.487 63.8017 351.75 62.6011 351.886C60.7314 352.205 58.8421 352.376 56.9773 352.675C55.915 352.933 54.8343 353.109 53.7448 353.2C50.5663 353.234 47.378 353.818 44.2045 353.779C42.9445 353.786 41.6878 353.909 40.4504 354.146C39.6138 354.212 38.788 354.377 37.9903 354.637C37.6164 354.794 37.2966 355.088 36.9226 355.25C36.2092 355.563 34.5117 355.627 34.1132 356.422C33.9213 356.799 34.0197 357.785 34.0738 358.216C34.174 358.606 34.3686 358.964 34.6406 359.261C34.9126 359.558 35.2535 359.783 35.6335 359.918C36.0983 360.01 36.5741 360.033 37.0456 359.986C38.0297 359.986 38.8858 360.246 39.8501 360.3C42.1263 360.471 44.413 360.443 46.6843 360.217C48.2834 360.011 49.9169 360.178 51.4962 359.923C52.8542 359.697 54.2171 359.56 55.5849 359.383C56.4263 359.275 57.1889 358.952 58.045 358.824C59.029 358.677 60.0131 358.613 61.0266 358.432C63.3342 358.005 65.4548 356.961 67.723 356.471C68.097 356.397 68.5349 356.471 68.9088 356.358C69.5779 356.181 70.1339 355.897 70.8228 355.755C71.9721 355.454 73.1011 355.08 74.2029 354.637C76.4022 353.872 78.4589 352.906 80.5992 351.959C81.7554 351.469 82.7493 350.694 83.9252 350.219C84.7134 349.915 85.4565 349.506 86.1344 349.003C87.9401 347.703 90.0066 346.693 91.8024 345.379C95.9108 342.378 98.9515 338.024 101.328 333.581C101.608 333.056 101.766 332.497 102.061 331.958C102.356 331.419 102.824 330.914 103.173 330.35C104.477 328.222 105.387 325.868 106.376 323.588C106.916 322.371 107.296 321.091 107.508 319.778C107.584 318.916 107.703 318.058 107.867 317.208C108.054 316.478 108.162 315.737 108.359 315.002C108.708 313.791 109.264 312.658 109.564 311.432C110.179 308.921 111.09 306.489 111.729 304.003C111.882 303.4 111.916 302.753 112.083 302.164C112.251 301.576 112.398 301.086 112.541 300.625C112.94 299.257 113.433 297.918 114.017 296.618C114.444 295.501 114.994 294.434 115.656 293.436C116.372 288.395 117.866 283.494 120.084 278.907C122.431 283.585 122.957 288.945 123.779 294.191C124.405 294.678 124.959 295.249 125.427 295.888C125.757 296.378 125.673 296.677 125.688 297.359C125.794 298.364 125.973 299.361 126.224 300.34C126.332 301.293 126.352 302.253 126.283 303.209C126.283 303.439 126.283 303.699 126.283 303.91C126.313 305.381 126.455 306.921 126.603 308.362C126.732 309.92 126.941 311.47 127.228 313.006C127.369 313.61 127.548 314.205 127.764 314.786C128.173 315.943 128.291 317.125 128.655 318.292C129.285 320.149 129.804 322.042 130.209 323.96C130.515 325.593 131.597 327.01 132.178 328.57C133.476 332.144 135.489 335.704 135.814 339.544C135.981 341.505 137.29 342.486 138.51 343.834C138.966 344.413 139.334 345.056 139.602 345.742C140.094 346.801 140.709 347.821 140.955 348.963C141.418 351.145 142.746 353.215 143.632 355.245C144.257 356.681 144.503 357.991 146.092 358.545C147.681 359.099 149.565 359.035 151.273 359.403C152.213 359.609 153.024 359.78 153.841 359.114C154.51 358.564 154.067 358.133 154.333 357.412C155.042 358.339 155.583 359.261 156.636 359.776C157.826 360.301 159.109 360.584 160.41 360.609C161.477 360.668 162.525 360.864 163.598 360.893C163.844 360.893 166.161 361.163 166.412 360.844C166.776 360.354 166.289 359.32 166.102 358.805C165.945 358.402 165.717 358.03 165.428 357.706C164.824 357.447 164.276 357.074 163.814 356.608C164.149 356.858 164.685 356.971 164.995 357.25C165.149 357.393 165.294 357.545 165.428 357.706C165.65 357.804 165.876 357.897 166.097 357.986C166.54 358.167 166.885 358.295 167.081 357.633C167.165 357.085 167.165 356.528 167.081 355.98C166.86 355 165.507 354.372 164.725 353.886C164.133 353.515 163.52 353.178 162.889 352.876C162.455 352.581 161.972 352.364 161.463 352.234C161.325 350.959 161.123 349.9 159.913 349.292C159.042 348.87 158.171 348.311 157.266 347.899C156.239 347.391 155.26 346.79 154.343 346.105C153.251 345.354 152.031 344.634 150.992 343.775C150.053 342.92 149.068 342.116 148.04 341.368C147.533 341.098 147.14 340.656 146.933 340.122C146.594 339.367 145.821 338.686 145.674 337.891C145.61 337.514 145.674 337.146 145.605 336.768C145.462 336.388 145.298 336.017 145.113 335.655C144.91 335.062 144.763 334.451 144.675 333.831C144.542 333.065 144.468 332.289 144.453 331.512C144.453 330.928 145.752 330.266 145.639 329.732C145.792 330.065 145.939 330.399 146.092 330.712C156.252 310.26 154.377 287.89 158.338 265.525C158.338 264.187 159.007 262.181 160.351 261.514C165.351 260.113 169.868 257.368 173.409 253.581C173.497 252.379 173.62 251.188 173.773 249.967C173.886 249.079 173.743 248.182 173.866 247.304C173.988 246.775 174.084 246.24 174.152 245.701C174.181 244.872 174.122 244.028 174.152 243.195C174.253 241.286 174.555 239.392 175.052 237.546C175.259 236.784 175.511 236.034 175.805 235.3C175.948 234.898 175.977 234.437 176.149 234.04C176.41 233.442 176.996 233.059 177.35 232.5C177.64 232.01 177.753 232.157 178.147 231.878C178.419 231.637 178.61 231.318 178.693 230.966C179.056 229.994 179.233 228.962 179.215 227.925C179.215 226.847 179.416 225.562 179.215 224.493C178.984 223.594 178.681 222.715 178.309 221.865C178.112 221.335 177.975 221.374 178.063 220.683C178.162 219.908 178.418 219.153 178.555 218.388C178.718 217.329 178.821 216.343 178.91 215.294C178.987 214.521 179.112 213.753 179.283 212.994C179.283 212.931 179.5 212.69 179.529 212.597C179.551 212.314 179.542 212.03 179.505 211.749C179.546 211.121 179.648 210.498 179.81 209.89C180.11 208.494 180.312 207.078 180.415 205.654C180.509 204.251 180.838 202.898 181.001 201.5C181.133 200.358 181.561 199.245 181.601 198.102C181.645 196.881 181.67 196.053 182.236 194.935C181.006 181.136 180.386 167.088 181.252 153.132C181.183 151.965 180.986 150.857 180.986 149.646V144.081C180.986 140.707 181.242 137.216 180.986 133.871C180.927 133.043 180.666 132.288 180.666 131.444C180.681 131.207 180.681 130.97 180.666 130.733C180.576 130.142 180.399 129.566 180.14 129.027C179.731 128.1 179.362 127.159 179.028 126.227C178.27 124.133 177.438 121.51 178.112 119.254C178.576 117.965 178.832 116.612 178.87 115.243C178.87 114.194 179.17 113.331 179.165 112.301C179.165 109.996 179.687 107.76 180.041 105.627C180.205 105.097 180.31 104.552 180.356 103.999C180.327 103.747 180.327 103.492 180.356 103.239C180.41 103.014 180.602 102.989 180.641 102.788C180.73 102.298 180.902 100.312 180.499 99.9883C181.03 99.4293 181.773 99.444 182.388 99.0321C182.924 98.6662 183.377 98.1916 183.717 97.6395C184.113 97.0538 184.389 96.3954 184.528 95.7026C184.651 94.9818 184.922 94.2708 185.099 93.5843C185.498 92.0397 185.936 90.7844 185.498 89.2251Z" fill="#29299C"/>
<path d="M162.91 69.3346C160.405 69.1042 157.891 68.8737 155.401 68.5255C153.433 68.251 150.826 67.4517 149.143 68.8786L148.966 69.0159C149.417 69.3599 149.979 69.5258 150.545 69.4817C151.532 69.4353 152.52 69.5546 153.468 69.8348C154.609 70.2074 155.603 71.5412 156.105 72.6004C156.396 73.141 156.512 73.758 156.438 74.367C156.364 74.976 156.104 75.5474 155.692 76.0034C155.363 76.3735 155.063 76.7668 154.791 77.1802C154.624 77.4401 154.54 77.6215 154.363 77.8569C154.112 78.1805 153.822 78.4747 153.576 78.8082C153.302 79.119 153.082 79.4738 152.927 79.8575C152.823 80.2106 152.956 80.5636 152.877 80.9069C152.799 81.2501 152.622 81.3384 152.553 81.6179C152.513 82.0174 152.513 82.4197 152.553 82.8192C152.553 83.6921 152.1 86.4086 152.907 86.9088C153.399 87.203 154.196 86.8205 154.654 86.7371H154.855C155.198 86.0847 155.586 85.4572 156.016 84.8591C156.289 84.4714 156.633 84.1386 157.03 83.8784C155.736 81.917 156.627 78.5483 159.692 78.5483C163.195 78.5483 163.854 82.932 161.689 84.5992C163.106 85.933 165.266 86.8352 166.752 88.419C166.853 88.5292 166.947 88.6455 167.033 88.7672C167.515 88.7169 167.962 88.4877 168.282 88.1248C168.455 87.8551 168.258 87.4285 168.282 87.1441C168.356 86.8125 168.527 86.5103 168.775 86.2762C169.385 85.5799 169.788 85.2514 169.788 84.3393C169.779 83.7447 169.572 83.1699 169.198 82.7065C168.474 81.4904 167.328 80.6372 166.369 79.5878C165.911 79.0975 165.532 78.9013 165.291 78.2639C164.954 77.3802 164.765 76.4478 164.73 75.5032C164.706 74.0763 164.543 72.4778 165.995 71.6589C166.783 71.3154 167.608 71.0653 168.455 70.9136C169.08 70.7468 170.226 70.6684 170.629 70.0456C170.723 69.8976 170.78 69.7296 170.797 69.5553C168.302 69.1728 165.468 69.57 162.91 69.3346Z" fill="#8B8BDD"/>
<path opacity="0.8" d="M151.771 67.0212C151.623 67.0904 151.485 67.1777 151.358 67.2811C151.363 67.2419 151.373 67.1929 151.771 67.0212Z" fill="#8B8BDD"/>
<path opacity="0.8" d="M197.107 220.556C196.781 219.394 196.557 218.207 196.437 217.006C196.231 213.25 196.403 209.401 196.437 205.64C196.467 202.207 198.15 198.951 197.948 195.534C197.776 192.655 196.472 189.35 195.035 186.879C194.149 185.458 193.35 183.984 192.644 182.466C191.793 180.465 190.966 178.293 189.908 176.376C189.416 175.527 188.959 174.689 188.56 173.796C188.354 173.207 188.107 172.631 187.822 172.075C187.601 171.785 187.419 171.467 187.281 171.129C187.092 170.374 186.797 169.649 186.405 168.976C186.136 168.521 185.891 168.051 185.672 167.569C185.313 166.897 184.914 166.245 184.545 165.573C184.053 164.651 183.822 163.661 183.34 162.724C183.028 161.978 182.759 161.215 182.533 160.439C182.316 159.875 182.11 159.243 181.938 158.659C181.477 157.094 181.253 155.47 181.273 153.839C181.273 153.599 181.273 153.349 181.244 153.128C180.363 167.084 180.983 181.132 182.228 194.93C182.24 194.898 182.254 194.867 182.272 194.837C182.508 194.935 182.818 195.715 182.995 196.014C183.374 196.666 183.911 197.176 184.334 197.799C185.165 198.997 185.841 200.296 186.346 201.663C186.887 203.193 186.754 204.924 187.158 206.537C187.389 207.483 187.517 208.445 187.768 209.347C187.806 209.751 187.823 210.157 187.817 210.563C187.876 210.886 188.088 211.112 188.147 211.436C188.245 211.975 188.176 212.534 188.28 213.069C188.427 213.819 188.811 214.407 188.998 215.143C189.169 215.905 189.401 216.653 189.692 217.379C189.972 218.021 190.459 218.511 190.74 219.154C190.919 219.766 191.155 220.36 191.443 220.929C191.99 221.713 193.072 221.615 193.785 222.101C194.809 222.792 194.666 223.915 194.676 225.072C194.676 226.337 194.209 227.2 193.692 228.333C193.323 229.162 193.293 230.883 194.745 230.363C195.38 230.142 195.729 229.427 196.152 228.985C196.443 228.728 196.669 228.405 196.811 228.044C197.343 227.01 197.626 225.866 197.638 224.705C197.705 223.812 197.684 222.915 197.574 222.027C197.466 221.532 197.205 220.968 197.107 220.556Z" fill="#191994"/>
<path d="M197.107 220.556C196.781 219.394 196.557 218.207 196.437 217.006C196.231 213.25 196.403 209.401 196.437 205.64C196.467 202.207 198.15 198.951 197.948 195.534C197.776 192.655 196.472 189.35 195.035 186.879C194.149 185.458 193.35 183.984 192.644 182.466C191.793 180.465 190.966 178.293 189.908 176.376C189.416 175.527 188.959 174.689 188.56 173.796C188.354 173.207 188.107 172.631 187.822 172.075C187.601 171.785 187.419 171.467 187.281 171.129C187.092 170.374 186.797 169.649 186.405 168.976C186.136 168.521 185.891 168.051 185.672 167.569C185.313 166.897 184.914 166.245 184.545 165.573C184.053 164.651 183.822 163.661 183.34 162.724C183.028 161.978 182.759 161.215 182.533 160.439C182.316 159.875 182.11 159.243 181.938 158.659C181.477 157.094 181.253 155.47 181.273 153.839C181.273 153.599 181.273 153.349 181.244 153.128C180.363 167.084 180.983 181.132 182.228 194.93C182.24 194.898 182.254 194.867 182.272 194.837C182.508 194.935 182.818 195.715 182.995 196.014C183.374 196.666 183.911 197.176 184.334 197.799C185.165 198.997 185.841 200.296 186.346 201.663C186.887 203.193 186.754 204.924 187.158 206.537C187.389 207.483 187.517 208.445 187.768 209.347C187.806 209.751 187.823 210.157 187.817 210.563C187.876 210.886 188.088 211.112 188.147 211.436C188.245 211.975 188.176 212.534 188.28 213.069C188.427 213.819 188.811 214.407 188.998 215.143C189.169 215.905 189.401 216.653 189.692 217.379C189.972 218.021 190.459 218.511 190.74 219.154C190.919 219.766 191.155 220.36 191.443 220.929C191.99 221.713 193.072 221.615 193.785 222.101C194.809 222.792 194.666 223.915 194.676 225.072C194.676 226.337 194.209 227.2 193.692 228.333C193.323 229.162 193.293 230.883 194.745 230.363C195.38 230.142 195.729 229.427 196.152 228.985C196.443 228.728 196.669 228.405 196.811 228.044C197.343 227.01 197.626 225.866 197.638 224.705C197.705 223.812 197.684 222.915 197.574 222.027C197.466 221.532 197.205 220.968 197.107 220.556Z" fill="#191994"/>
<path d="M168.081 71.5383C167.097 72.3032 165.365 73.0093 165.208 74.397C165.075 75.5297 165.7 76.6575 166.133 77.6677C166.718 79.0946 168.219 79.8007 168.928 81.0413C169.739 82.4633 170.458 83.9834 171.171 85.4544C171.491 86.1164 171.511 86.2292 172.308 86.2046C172.652 86.2046 172.937 86.2439 173.208 85.9693C173.479 85.6947 173.366 85.1504 173.7 84.8317C174.035 84.5129 175.019 84.2923 175.476 84.1844C176.249 84.003 177.016 84.0373 177.813 83.8853C178.196 83.8591 178.562 83.7189 178.864 83.4828C179.166 83.2467 179.389 82.9257 179.506 82.5614C179.66 82.2523 179.751 81.916 179.774 81.5718C179.796 81.2276 179.751 80.8823 179.639 80.5558C179.098 79.0357 177.464 78.0648 176.539 76.8586C176.091 76.2751 175.821 75.5788 175.378 75.0051C174.935 74.4314 174.418 73.7841 173.966 73.1466C173.628 72.6403 173.205 72.1958 172.716 71.8325C172.41 71.6159 172.064 71.461 171.698 71.3765C171.535 71.352 171.353 71.4304 171.206 71.4059C170.93 71.3618 170.714 71.1754 170.448 71.1411" fill="#191994"/>
<path d="M155.177 70.7405V70.6571C154.497 70.4346 153.797 70.2818 153.086 70.2011C152.628 70.1766 152.166 70.2011 151.703 70.2011C151.387 70.2343 151.076 70.3 150.773 70.3972C150.464 70.4319 150.158 70.491 149.858 70.5737C149.578 70.6816 149.302 70.8336 149.027 70.9513C148.628 71.1292 148.27 71.3861 147.974 71.7065C147.659 72.0301 147.309 72.2851 146.99 72.6136C146.617 73.0191 146.274 73.4501 145.961 73.9032C145.681 74.3053 145.366 74.7074 145.115 75.1242C144.938 75.4233 144.795 75.7813 144.623 76.1049C144.512 76.3346 144.423 76.5743 144.357 76.8208C144.131 77.625 144.284 78.6155 144.279 79.454C144.227 79.87 144.331 80.2904 144.569 80.6357C145.045 81.2009 145.612 81.6831 146.247 82.0626C147.037 82.4689 147.86 82.8085 148.707 83.0777C148.99 83.1985 149.304 83.228 149.605 83.1621C149.906 83.0961 150.178 82.938 150.385 82.7099C150.69 82.401 150.99 82.1019 151.305 81.7978C151.427 81.657 151.537 81.5061 151.634 81.3467C151.888 81.0088 152.194 80.7126 152.54 80.469C153.007 80.1328 153.447 79.7588 153.853 79.351C154.273 78.9013 154.738 78.4955 155.241 78.1398C155.882 77.7068 156.421 77.1395 156.82 76.4776C156.996 76.2031 157.133 75.9062 157.229 75.5949C157.337 75.1634 157.307 74.7319 157.391 74.3004C157.448 73.9601 157.457 73.6137 157.42 73.2707C157.42 73.1383 157.352 73.1138 157.332 73.0059C157.312 72.898 157.332 72.7901 157.332 72.6921C157.258 72.388 156.992 72.2017 156.84 71.9369C156.714 71.6964 156.547 71.4791 156.348 71.2946C156.039 70.9725 155.622 70.7753 155.177 70.7405Z" fill="#191994"/>
<path d="M157.217 81.4666C157.263 81.5836 157.333 81.6901 157.422 81.7794C157.511 81.8688 157.617 81.9392 157.734 81.9864C158.009 82.1139 158.029 81.9864 158.226 81.8147C158.295 81.7619 158.348 81.6919 158.381 81.6118C158.414 81.5317 158.425 81.4444 158.413 81.3587C158.413 81.0449 158.369 81.0155 158.093 80.9076C157.817 80.7997 157.198 80.9566 157.03 80.6967C156.947 80.5545 157.03 80.2358 157.03 80.074C157.032 79.8441 157.118 79.6228 157.271 79.4512C157.517 79.1599 157.856 78.9609 158.231 78.8873C158.437 78.8432 158.654 78.8873 158.865 78.8873C159.043 78.8436 159.224 78.8141 159.407 78.7991C159.682 78.7991 159.963 78.7991 160.238 78.7991C160.475 78.7907 160.71 78.836 160.927 78.9315C161.193 79.0394 161.503 79.0345 161.754 79.1472C162.202 79.4183 162.557 79.8184 162.772 80.2947C162.851 80.4809 162.887 80.6823 162.878 80.8843C162.869 81.0862 162.814 81.2835 162.718 81.4617C162.447 81.8196 162.196 81.8049 161.773 81.8049C161.513 81.8049 160.592 81.6676 160.686 82.1286C160.725 82.3247 160.878 82.3002 161.016 82.3639C161.293 82.5507 161.594 82.6991 161.911 82.8052C162.379 82.8428 162.826 83.0129 163.2 83.2956C163.54 83.629 163.318 84.0753 162.959 84.2763C162.547 84.5149 162.116 84.7198 161.67 84.8892C161.229 85.1215 160.737 85.2443 160.238 85.2472C160.086 85.2472 159.977 85.1589 159.83 85.1295C159.684 85.1262 159.54 85.1014 159.402 85.056C159.122 84.9475 158.832 84.867 158.536 84.8157C158.247 84.7384 157.949 84.7005 157.65 84.7029C157.384 84.7029 157.247 84.7421 157.055 84.5705C156.85 84.3416 156.695 84.0734 156.599 83.7825C156.502 83.4915 156.467 83.184 156.494 82.8788C156.453 82.5978 156.501 82.311 156.63 82.0581C156.76 81.8052 156.965 81.5985 157.217 81.4666Z" fill="#212121"/>
<path d="M157.134 82.9041C157.134 84.0956 156.362 84.9978 155.855 86.0129C155.52 86.566 155.132 87.0865 154.699 87.5673C154.499 87.8652 154.27 88.1427 154.015 88.396C153.708 88.6204 153.418 88.8679 153.149 89.1364C153.03 89.3092 152.88 89.4588 152.706 89.5777C152.559 89.6758 152.396 89.7542 152.214 89.867C152.032 89.9798 152.037 90.0631 151.919 90.1416C151.801 90.2201 151.683 90.2103 151.614 90.274C151.393 90.475 151.501 90.4799 151.614 90.7055C151.816 91.137 152.062 91.0635 152.519 91.0635C153.134 91.0568 153.747 91.006 154.354 90.9115C154.676 90.8329 154.989 90.7228 155.289 90.5829C155.742 90.4211 156.19 90.2446 156.657 90.1269C157.168 90.0221 157.691 89.9858 158.212 90.019C159.196 90.019 160.224 90.019 161.228 90.019C161.419 90.0133 161.61 90.0248 161.799 90.0533C162.217 90.1269 162.699 90.0926 163.103 90.2004C163.727 90.3721 164.308 90.73 164.943 90.8771C165.599 91.0594 166.274 91.1696 166.955 91.2057C167.117 91.2057 167.29 91.2596 167.393 91.1272C167.496 90.9948 167.344 90.6369 167.29 90.475C167.104 89.8814 166.809 89.3276 166.419 88.8422C165.996 88.3518 165.435 88.1949 164.943 87.8223C164.713 87.6395 164.502 87.4341 164.313 87.2093C164.075 86.9939 163.824 86.7941 163.56 86.6111C163.214 86.3504 162.9 86.0492 162.625 85.7138C162.389 85.4146 162.025 85.2822 161.779 84.9831C161.597 84.7625 161.474 84.4928 161.287 84.2721C160.421 83.3159 158.419 83.6494 157.134 82.9041Z" fill="#191994"/>
<path d="M155.318 87.9678C154.869 88.2828 154.449 88.6372 154.064 89.0269C153.295 89.8906 152.652 90.8579 152.154 91.9004C151.771 92.8811 152.017 93.5774 152.647 94.3521C153.34 95.2397 154.231 95.7251 154.767 96.7401C155.172 97.4233 155.657 98.0555 156.214 98.6231C156.75 99.2164 156.656 99.6038 156.656 100.398C156.656 100.962 156.445 101.962 156.691 102.428C156.898 102.811 157.183 102.791 157.522 102.85C158.341 102.906 159.163 102.906 159.983 102.85C160.892 102.818 161.793 102.653 162.654 102.36C162.866 101.565 162.684 100.496 162.684 99.6724C162.684 98.628 162.93 97.711 162.905 96.6519C162.905 95.7889 163.432 95.4407 164.125 94.9847C164.617 94.6709 165.355 94.3472 165.665 93.8618C165.852 93.5774 165.956 93.2734 166.157 92.9693C166.477 92.4398 166.733 91.3022 166.335 90.7775C165.651 89.885 164.366 89.6987 163.382 89.3064C162.656 88.958 161.879 88.7279 161.08 88.6248C160.302 88.566 159.604 88.5856 158.807 88.463C158.226 88.3748 154.733 88.1149 155.318 87.9678Z" fill="#191994"/>
<path d="M152.907 90.4977C153.111 90.3547 153.327 90.2285 153.552 90.1202C153.732 89.9957 153.897 89.8509 154.044 89.6887C154.417 89.2719 154.855 88.8845 155.234 88.4579C155.438 88.2638 155.655 88.0836 155.884 87.9185C156.046 87.7812 156.218 87.639 156.376 87.5164C156.523 87.4247 156.694 87.3786 156.868 87.384C157.084 87.384 157.296 87.3154 157.507 87.281C157.943 87.2152 158.339 86.9918 158.619 86.6534C158.723 86.5022 158.865 86.381 159.031 86.3018C159.197 86.2226 159.381 86.1883 159.564 86.2023C159.912 86.2147 160.251 86.316 160.548 86.4965C161.128 86.7847 161.735 87.0178 162.359 87.1928C162.654 87.3359 162.938 87.4998 163.21 87.6831C163.527 87.8267 163.82 88.0168 164.081 88.247C164.289 88.4524 164.52 88.6334 164.77 88.7864C165.02 88.9237 165.114 89.164 165.34 89.3258C165.68 89.571 166.005 89.8505 166.349 90.0859C166.585 90.2477 167.259 90.5762 167.185 90.9293C167.082 91.4196 166.506 91.199 166.201 91.1254C165.76 91.0493 165.339 90.8823 164.966 90.6351C164.731 90.4293 164.464 90.2636 164.174 90.1447C163.455 89.8429 162.682 89.6879 161.901 89.6887C161.507 89.6887 161.183 89.6102 160.799 89.5759C160.358 89.5514 159.916 89.5514 159.475 89.5759C159.033 89.5759 158.619 89.4582 158.181 89.4631C158.041 89.4533 157.899 89.4533 157.758 89.4631C157.64 89.4876 157.611 89.5465 157.502 89.5759C157.365 89.5836 157.227 89.5836 157.089 89.5759C156.824 89.6166 156.561 89.6706 156.302 89.7377C155.898 89.8537 155.485 89.9357 155.067 89.9829C154.606 90.078 154.183 90.3026 153.847 90.6301C153.703 90.7564 153.532 90.8487 153.347 90.9005C153.162 90.9523 152.968 90.9621 152.779 90.9293C152.858 90.8802 152.882 90.8508 152.907 90.4977Z" fill="#212121"/>
<path d="M153.772 75.1385C153.733 75.3003 153.856 75.3298 153.885 75.4572C153.9 75.6007 153.9 75.7453 153.885 75.8888C153.885 76.0947 153.929 76.2957 153.944 76.487C153.939 76.6311 153.918 76.7742 153.88 76.9136C153.874 77.199 153.777 77.4751 153.605 77.703C153.417 77.9402 153.182 78.1371 152.916 78.2817C152.594 78.4331 152.253 78.5403 151.902 78.6004C151.505 78.7099 151.117 78.8493 150.741 79.0172C150.643 79.0614 150.537 79.0813 150.429 79.0754C150.322 79.0694 150.218 79.0376 150.126 78.9829C149.775 78.9075 149.442 78.7678 149.142 78.571C149.055 78.4578 148.982 78.3343 148.926 78.2032C148.755 77.9243 148.61 77.6305 148.493 77.3255C148.291 77.5265 148.178 77.5608 148.168 77.8796C148.139 78.1188 148.176 78.3613 148.276 78.5808C148.389 78.7474 148.535 78.89 148.704 79.0003C148.872 79.1106 149.062 79.1863 149.26 79.2231C149.694 79.3641 150.147 79.4353 150.603 79.434H151.302C151.523 79.4304 151.742 79.394 151.952 79.3261C152.2 79.2842 152.445 79.2235 152.685 79.1447C152.894 79.0282 153.077 78.8695 153.221 78.6788C153.363 78.5015 153.479 78.3051 153.565 78.0953C153.715 77.8694 153.851 77.6353 153.974 77.3941C154.158 77.0126 154.313 76.6175 154.436 76.2124C154.471 75.9525 154.461 75.1189 153.772 75.1385Z" fill="#212121"/>
<path d="M152.041 74.1821C151.45 74.1258 150.854 74.2273 150.314 74.4763C149.958 74.6871 149.628 74.9389 149.33 75.2266C149.15 75.3757 149.002 75.5601 148.895 75.7684C148.788 75.9766 148.726 76.2044 148.71 76.4377C148.723 76.6717 148.784 76.9005 148.891 77.1092C148.998 77.3178 149.147 77.5018 149.33 77.6489C149.672 77.9624 150.089 78.182 150.541 78.2864C150.774 78.367 151.021 78.3999 151.267 78.383C151.513 78.3662 151.753 78.2999 151.973 78.1883C152.1 78.0902 152.204 77.9382 152.327 77.8352C152.514 77.7037 152.691 77.5596 152.858 77.4037C153.193 77.0719 153.403 76.6357 153.454 76.168C153.536 75.7053 153.47 75.2286 153.267 74.8049C152.991 74.339 152.465 74.2949 152.041 74.1821Z" fill="#212121"/>
<path d="M169.396 75.7925C169.229 75.9166 169.077 76.0598 168.944 76.2191C168.79 76.4421 168.653 76.6765 168.535 76.9203C168.469 77.1104 168.426 77.3081 168.407 77.5087C168.332 77.7122 168.31 77.9317 168.343 78.1462C168.486 78.9552 169.131 79.5044 169.667 80.1075C170.197 80.7434 170.909 81.2021 171.709 81.4217C172.36 81.5159 173.02 81.5422 173.677 81.5001C174.173 81.5516 174.673 81.4396 175.099 81.1814C175.383 80.9438 175.614 80.6499 175.778 80.3184C175.878 80.1562 175.941 79.9735 175.96 79.7839C176.02 79.5743 176.058 79.359 176.073 79.1416C176.073 78.916 175.985 78.715 175.96 78.4894C175.96 78.3204 175.892 78.1583 175.773 78.0383C175.65 77.8961 175.158 77.3224 174.902 77.5479C174.835 77.7698 174.782 77.9959 174.745 78.2246C174.717 78.4356 174.666 78.6428 174.592 78.8424C174.395 79.2072 174.096 79.507 173.731 79.7055C172.869 80.0783 171.902 80.1373 171 79.8722C170.631 79.7496 170.435 79.3181 170.228 79.0337C169.903 78.713 169.685 78.3004 169.603 77.8519C169.587 77.6848 169.551 77.5201 169.495 77.3616C169.473 77.1644 169.473 76.9654 169.495 76.7683C169.524 76.5535 169.524 76.3358 169.495 76.121C169.396 75.8366 169.214 75.9004 169.396 75.7925Z" fill="#212121"/>
<path d="M172.415 75.0353C171.716 75.0353 170.732 74.8048 170.393 75.6237C170.29 75.9268 170.208 76.2364 170.147 76.5504C170.061 76.7498 170.024 76.9666 170.038 77.183C170.131 77.6029 170.297 78.0031 170.53 78.3647C170.691 78.5893 170.898 78.7775 171.137 78.9169C171.377 79.0563 171.642 79.1439 171.918 79.1738C172.511 79.3057 173.129 79.2786 173.709 79.0954C173.872 79.0493 174.024 78.9703 174.155 78.8631C174.286 78.756 174.394 78.623 174.471 78.4726C174.628 78.2109 174.755 77.9331 174.85 77.6439C174.91 77.3374 174.901 77.0213 174.821 76.7191C174.742 76.4169 174.596 76.1363 174.393 75.8983C174.129 75.6373 173.819 75.4277 173.478 75.2804C173.299 75.2179 173.114 75.1735 172.926 75.148C172.764 75.1088 172.695 75.0058 172.503 75.0353" fill="#212121"/>
<path opacity="0.8" d="M154.421 94.3672C154.48 94.7399 154.79 94.9213 155.06 95.142C155.601 95.6223 156.227 95.9981 156.905 96.2502C157.126 96.3024 157.353 96.3206 157.579 96.3041C158.071 96.3041 158.564 96.3041 159.056 96.3041C159.872 96.2502 160.689 96.0393 161.516 96.0001C162.032 95.9756 163.548 95.8334 163.597 96.6425C163.661 97.6967 161.894 97.5104 161.314 97.5055C160.261 97.5055 159.297 97.9468 158.234 97.937C157.763 97.9615 157.292 97.9615 156.822 97.937C156.398 97.8318 155.993 97.6667 155.616 97.4466C154.88 97.0665 154.249 96.5106 153.781 95.8285C153.602 95.5109 153.482 95.1637 153.427 94.8037C153.339 94.5876 153.318 94.35 153.368 94.1221C153.708 94.243 154.062 94.3252 154.421 94.3672Z" fill="#212121"/>
<path d="M145.152 160.665C145.152 160.876 144.759 161.092 144.7 161.332C144.66 161.662 144.692 161.996 144.793 162.313C144.827 162.591 144.921 162.859 145.069 163.097C145.197 163.259 145.492 163.338 145.561 163.475C145.63 163.612 145.561 164.088 145.561 164.308C145.621 164.633 145.663 164.96 145.689 165.289C145.676 165.833 145.583 166.371 145.413 166.888C145.201 167.545 144.955 168.197 144.734 168.849C144.427 169.589 144.166 170.347 143.952 171.119C143.664 172.082 143.455 173.065 143.327 174.061C143.346 174.488 143.415 174.911 143.534 175.322C143.616 175.868 143.569 176.425 143.396 176.95C143.066 178.058 142.81 179.102 141.92 179.931C141.762 180.078 141.575 180.186 141.428 180.328C141.354 180.392 141.305 180.495 141.221 180.549C141.137 180.603 140.955 180.647 140.852 180.789C140.749 180.931 140.768 181.01 140.665 181.108C140.562 181.206 140.36 181.206 140.33 181.348C140.301 181.49 140.508 181.677 140.601 181.799C140.744 182.037 140.943 182.236 141.182 182.378C141.314 182.437 141.456 182.475 141.6 182.491C141.748 182.52 142.21 182.525 142.299 182.657C142.185 182.853 141.885 182.961 141.703 183.089C141.423 183.28 141.177 183.52 140.891 183.716C140.717 183.804 140.552 183.909 140.399 184.03C140.586 184.221 141.344 183.957 141.575 183.932C142.039 183.908 142.504 183.908 142.968 183.932C143.736 183.92 144.504 183.964 145.265 184.065C146.742 184.29 147.794 185.315 149.029 186.026C149.949 186.546 150.855 187.105 151.745 187.669C152.493 188.093 153.159 188.646 153.713 189.302C154.327 190.049 155.013 190.736 155.76 191.351C156.513 192.033 157.413 192.533 158.063 193.313C158.384 193.771 158.796 194.16 159.273 194.455C159.907 194.783 160.599 194.986 161.31 195.053C161.46 195.053 161.606 195.107 161.719 195.205C162.24 195.593 162.211 196.186 162.363 196.74C162.447 196.999 162.516 197.263 162.57 197.53C162.586 197.856 162.586 198.184 162.57 198.51C162.619 199.035 162.704 199.556 162.826 200.07C162.929 200.554 162.993 201.046 163.018 201.541C163.018 202.031 163.175 202.492 163.141 202.977C163.086 203.698 162.786 204.394 162.796 205.12C162.796 206.037 162.924 206.944 162.909 207.861C162.884 208.279 162.919 208.699 163.013 209.107C163.097 209.358 163.167 209.613 163.224 209.872C163.278 210.235 163.298 210.607 163.372 210.965C163.447 211.178 163.542 211.383 163.657 211.578C163.844 211.99 163.898 212.446 164.056 212.868C164.213 213.289 164.297 213.907 164.469 214.388C164.538 214.584 164.626 214.55 164.799 214.604C164.971 214.658 165.463 214.643 165.62 214.819C165.822 215.17 165.962 215.554 166.034 215.952C166.26 216.614 166.462 217.286 166.732 217.943C166.812 218.196 166.954 218.425 167.146 218.61C167.411 218.86 167.638 219.139 167.879 219.394C168.331 219.84 169.109 219.796 169.689 220.022C170.019 220.155 170.335 220.32 170.634 220.512C170.853 220.619 171.065 220.738 171.269 220.87C171.573 221.14 171.812 221.476 171.967 221.851C172.082 222.034 172.178 222.227 172.253 222.43C172.376 222.954 172.174 223.508 172.159 224.038C172.204 224.421 172.204 224.807 172.159 225.19C172.114 225.408 172.086 225.63 172.076 225.852C172.041 226.254 171.898 226.455 172.076 226.892C172.13 227.039 172.331 227.578 172.494 227.622C172.73 227.176 173.03 226.774 173.306 226.352C173.465 226.004 173.642 225.663 173.837 225.332C173.891 225.509 173.945 225.681 174.004 225.852C174.042 225.999 174.069 226.148 174.083 226.298C174.135 226.459 174.175 226.622 174.201 226.789C174.201 226.97 174.201 227.152 174.201 227.333C174.177 228.195 174.002 229.046 173.684 229.849C173.502 230.339 173.345 230.829 173.192 231.32C173.133 231.53 173.079 231.736 173.025 231.947C172.996 232.07 172.819 232.403 172.848 232.506C172.937 232.854 173.788 232.34 173.862 232.776C173.935 233.212 173.286 233.58 173.429 233.933C173.64 233.933 173.921 233.747 174.083 233.639C174.368 233.467 174.605 233.237 174.88 233.046C175.443 232.662 175.915 232.16 176.263 231.575C176.55 231.116 176.775 230.621 176.932 230.104C176.983 229.789 176.999 229.47 176.981 229.152C176.981 228.814 177.104 228.53 177.099 228.172C177.099 227.416 177.143 226.647 177.099 225.891C177.099 225.646 176.996 225.426 176.996 225.18C177.012 224.907 177.084 224.64 177.207 224.396C177.271 224.249 177.325 223.935 177.542 223.955C177.758 223.974 177.98 224.994 177.99 225.2C178.018 225.77 178.089 226.337 178.201 226.897C178.263 227.606 178.263 228.32 178.201 229.03C178.201 229.52 178.201 230.01 178.201 230.501C178.177 230.778 178.09 231.047 177.945 231.285C177.877 231.427 177.719 231.624 177.744 231.776C177.803 232.143 178.492 231.854 178.669 231.727C179.2 231.354 179.377 230.604 179.569 230.04C179.64 229.902 179.698 229.757 179.741 229.608C179.739 229.441 179.711 229.276 179.658 229.118C179.622 228.792 179.622 228.463 179.658 228.137C179.819 226.67 179.809 225.189 179.628 223.724C179.524 223.238 179.381 222.76 179.2 222.297C179.062 221.885 178.984 221.464 178.816 221.066C178.456 220.206 178.175 219.315 177.975 218.404C177.783 217.551 177.601 216.707 177.448 215.849C177.384 215.462 177.237 215.094 177.163 214.711C177.114 214.417 177.33 213.461 177.084 213.24C177.124 213.039 176.942 212.75 176.888 212.578C176.821 212.292 176.737 212.011 176.637 211.735C176.519 211.441 176.45 211.147 176.346 210.847C176.243 210.548 176.223 210.186 176.12 209.867C176.017 209.548 175.815 209.102 175.717 208.685C175.589 208.195 175.505 207.67 175.416 207.145C175.239 206.135 175.077 205.11 174.88 204.1C174.772 203.45 174.607 202.81 174.388 202.188C174.206 201.547 174.085 200.89 174.029 200.227C173.906 199.393 173.916 198.545 173.812 197.706C173.759 197.236 173.733 196.762 173.734 196.289C173.692 195.827 173.613 195.37 173.498 194.921C173.35 194.102 173.197 193.283 173.006 192.469C172.798 191.733 172.465 191.038 172.021 190.415C171.495 189.625 171.092 188.762 170.575 187.963C170.259 187.518 169.921 187.089 169.561 186.678C169.276 186.32 169.045 185.972 168.789 185.59C168.617 185.339 168.366 185.143 168.194 184.888C168.038 184.623 167.9 184.348 167.78 184.065C167.544 183.574 167.259 183.138 167.023 182.657C166.531 181.677 165.984 180.696 165.438 179.754C164.88 178.88 164.37 177.976 163.908 177.048C163.485 176.067 162.963 175.214 162.486 174.282C161.792 172.934 160.951 171.683 160.331 170.291C159.878 169.276 159.514 168.202 159.131 167.162C158.918 166.628 158.765 166.072 158.673 165.505C158.595 165.192 158.57 164.869 158.599 164.549C158.662 164.345 158.693 164.134 158.693 163.921C158.649 164.25 158.553 164.569 158.407 164.867C158.338 165.073 158.294 165.279 158.245 165.485C158.237 165.592 158.198 165.695 158.132 165.779C158.132 163.921 158.24 161.263 157.541 159.523C157.233 158.931 156.96 158.322 156.725 157.698C156.567 157.139 156.523 156.595 156.316 156.041C155.987 155.158 155.721 154.246 155.416 153.354C155.175 152.663 155.027 151.765 154.609 151.157C154.028 150.304 153.059 150.118 152.114 150.02C151.354 149.905 150.577 150.038 149.898 150.399C149.22 150.761 148.677 151.331 148.35 152.025C148.026 152.574 147.706 153.074 147.337 153.594C147.124 153.955 146.944 154.334 146.801 154.727C146.461 155.392 146.17 156.08 145.93 156.786C145.885 157.228 144.611 160.248 145.152 160.665Z" fill="#5C5CB4"/>
<path d="M184.863 83.4786C184.656 83.2759 184.4 83.1291 184.12 83.052C183.766 83.0226 183.22 83.4394 182.934 83.611C181.894 84.2143 181.079 85.1385 180.612 86.2442C180.389 86.8633 180.224 87.5019 180.12 88.1517C179.998 88.7405 179.937 89.3402 179.938 89.9414C179.938 90.9221 179.78 91.9028 179.79 92.8835C179.79 93.722 179.79 94.5605 179.79 95.399C179.746 96.0766 179.746 96.7564 179.79 97.434C179.889 98.1744 180.184 99.361 181.06 99.3954C181.237 99.3895 181.412 99.3598 181.581 99.3071C181.803 99.2679 181.955 99.3758 182.172 99.263C182.272 99.1056 182.393 98.9622 182.531 98.8364C182.683 98.7236 182.836 98.6108 182.993 98.5078C183.357 98.2409 183.639 97.8796 183.81 97.4634C184.253 96.6004 184.927 95.9923 185.119 95.0116C185.256 94.2019 185.317 93.381 185.301 92.5599V87.9261C185.35 87.3452 185.35 86.7613 185.301 86.1805C185.178 85.4253 184.661 84.9742 184.863 83.4786Z" fill="#212121"/>
<path d="M139.014 80.6745C138.787 80.4945 138.518 80.3763 138.232 80.3313C137.872 80.3313 137.375 80.8217 137.11 81.008C136.14 81.7191 135.427 82.7236 135.078 83.8716C134.924 84.5152 134.831 85.172 134.802 85.833C134.741 86.4313 134.741 87.0343 134.802 87.6326C134.92 88.6133 134.851 89.594 134.97 90.5747C135.063 91.4083 135.147 92.2419 135.235 93.0755C135.259 93.7543 135.328 94.4308 135.442 95.1006C135.619 95.8264 136.037 96.9738 136.918 96.9199C137.087 96.8953 137.253 96.8491 137.41 96.7826C137.626 96.7188 137.794 96.7826 137.991 96.6747C138.078 96.5085 138.185 96.3537 138.31 96.2137C138.448 96.0814 138.586 95.9588 138.733 95.8362C139.064 95.5309 139.307 95.1433 139.437 94.7133C139.781 93.8061 140.392 93.1294 140.475 92.1389C140.53 91.3113 140.504 90.4803 140.397 89.6578L139.904 85.0485C139.897 84.466 139.839 83.8853 139.732 83.3126C139.531 82.582 138.97 82.1848 139.014 80.6745Z" fill="#212121"/>
<path opacity="0.8" d="M151.088 74.3306C150.675 74.6395 150.458 74.7474 150.493 75.3113C150.493 75.6545 150.631 76.0566 151.009 76.1301C151.501 76.2233 151.713 75.9585 151.866 75.5662C151.959 75.4205 152 75.2479 151.984 75.0759C151.934 74.7228 151.89 74.7768 151.536 74.7817" fill="white"/>
<path opacity="0.8" d="M172.208 75.5204C171.898 75.5204 171.574 75.4468 171.46 75.8097C171.347 76.1726 171.642 76.3932 171.987 76.4177C172.123 76.439 172.261 76.4075 172.374 76.3298C172.488 76.2521 172.566 76.1342 172.595 76.0002C172.623 75.8662 172.599 75.7265 172.527 75.6099C172.455 75.4932 172.341 75.4086 172.208 75.3733" fill="white"/>
<path opacity="0.8" d="M172.528 76.7648C172.322 76.7648 172.115 76.7207 172.036 76.9511C171.957 77.1816 172.154 77.3287 172.381 77.3483C172.466 77.3559 172.551 77.3321 172.62 77.2814C172.688 77.2307 172.736 77.1566 172.754 77.0732C172.771 76.9897 172.758 76.9028 172.715 76.8288C172.673 76.7548 172.604 76.6989 172.523 76.6716" fill="white"/>
<path opacity="0.8" d="M169.663 65.8958C169.811 66.3862 169.84 66.9108 169.968 67.3963C170.073 67.8886 170.34 68.3319 170.726 68.6565C170.918 68.8173 171.134 68.948 171.366 69.0438C171.474 69.093 171.595 69.1086 171.713 69.0885C171.83 69.0684 171.939 69.0135 172.025 68.9311C172.08 68.8226 172.111 68.7041 172.119 68.5829C172.119 68.4505 172.168 68.3328 172.187 68.2053C172.227 67.9553 172.256 67.715 172.271 67.4453C172.414 65.3997 171.876 63.3642 170.741 61.6543C171.316 62.4992 171.75 63.4316 172.025 64.415C172.295 65.403 172.405 66.4277 172.35 67.4502C172.35 67.7052 172.31 67.9406 172.276 68.2151C172.276 68.3377 172.227 68.4701 172.212 68.5927C172.206 68.7246 172.17 68.8534 172.109 68.9703C172.016 69.0711 171.894 69.14 171.76 69.1673C171.625 69.1946 171.486 69.1789 171.361 69.1223C171.116 69.0277 170.888 68.8935 170.687 68.7251C170.282 68.3927 170 67.9356 169.885 67.4257C169.752 66.9353 169.713 66.4107 169.565 65.9301L169.663 65.8958Z" fill="#191994"/>
<path opacity="0.8" d="M145.741 61C146.196 61.032 146.643 61.1295 147.07 61.2893C147.503 61.449 147.889 61.7155 148.191 62.0641C149.13 62.7236 149.892 63.6025 150.41 64.6237C150.942 65.3747 151.336 66.2128 151.577 67.1C151.669 67.5529 151.669 68.0199 151.577 68.4729C151.534 68.7006 151.461 68.9216 151.36 69.13C151.235 69.3154 151.155 69.5267 151.124 69.7478V69.8067L151.07 69.7773C149.968 69.1202 148.831 68.5171 147.68 67.9384C147.104 67.654 146.524 67.3745 145.923 67.1441C145.323 66.9136 144.713 66.7175 144.098 66.5262C142.868 66.1487 141.638 65.8201 140.393 65.4377C139.157 65.0751 137.958 64.599 136.811 64.0156C137.96 64.5948 139.161 65.0644 140.398 65.418C141.633 65.7956 142.858 66.1192 144.108 66.4968C144.723 66.6831 145.338 66.8793 145.943 67.1049C146.548 67.3304 147.129 67.5952 147.704 67.8943C148.861 68.4631 149.997 69.0613 151.109 69.7184L151.055 69.7478C151.084 69.5157 151.165 69.2929 151.291 69.0957C151.392 68.8942 151.463 68.6796 151.503 68.4582C151.592 68.0147 151.592 67.5581 151.503 67.1147C151.261 66.2348 150.865 65.4046 150.332 64.6629C149.815 63.6582 149.058 62.7958 148.127 62.1523C147.838 61.8194 147.469 61.5647 147.055 61.4119C146.638 61.2569 146.2 61.1643 145.756 61.1373L145.741 61Z" fill="#191994"/>
<path opacity="0.8" d="M172.438 91.2978C172.447 91.0289 172.53 90.7677 172.679 90.5427C172.818 90.3237 172.969 90.1125 173.131 89.9101C173.463 89.5142 173.834 89.1528 174.238 88.8313C175.058 88.2046 175.933 87.6516 176.851 87.1789L182.416 84.5261C186.245 83.0545 190.181 81.8743 194.19 80.9955C195.193 80.7798 196.2 80.582 197.211 80.4022C198.195 80.2061 199.223 80.0099 200.232 79.8432C202.251 79.476 204.3 79.2938 206.352 79.2989C204.308 79.2998 202.267 79.4869 200.256 79.8579C199.248 80.0296 198.239 80.2257 197.235 80.4267C196.232 80.6278 195.218 80.8092 194.219 81.0299C190.216 81.9206 186.286 83.114 182.465 84.5996L176.91 87.272C175.999 87.7416 175.133 88.2931 174.322 88.9196C173.921 89.2354 173.557 89.5938 173.235 89.9886C172.877 90.3442 172.644 90.805 172.57 91.3027L172.438 91.2978Z" fill="#191994"/>
<path opacity="0.8" d="M175.361 90.1253C177.524 90.1143 179.685 90.2783 181.822 90.6156C183.957 90.9491 186.078 91.3561 188.183 91.8562C189.231 92.1063 190.279 92.3809 191.313 92.6898C191.829 92.8467 192.346 93.0085 192.858 93.1802C193.369 93.3518 193.891 93.4842 194.398 93.6705C196.435 94.3992 198.355 95.4218 200.095 96.7058C202.149 97.8814 203.955 99.4415 205.414 101.3C203.951 99.4459 202.139 97.8936 200.08 96.7303C198.339 95.4541 196.42 94.4396 194.383 93.7195C193.891 93.5332 193.35 93.4057 192.838 93.2292C192.326 93.0527 191.81 92.9007 191.293 92.7388C190.26 92.4348 189.217 92.1602 188.164 91.9151C186.061 91.4247 183.942 91.0193 181.807 90.699C179.675 90.3617 177.52 90.1977 175.361 90.2086V90.1253Z" fill="#191994"/>
<path opacity="0.8" d="M145.672 86.6535C145.485 86.0656 145.227 85.5025 144.904 84.9765C144.589 84.4469 144.245 83.9272 143.92 83.4025C142.953 82.1229 141.641 81.1434 140.136 80.5781C138.259 79.4036 136.247 78.457 134.144 77.7586C130.701 76.1572 127.086 74.9529 123.368 74.1692L119.959 73.9142L118.256 73.7867C117.689 73.7346 117.119 73.7117 116.549 73.7181C114.265 73.7428 111.998 74.125 109.833 74.8508C111.997 74.1157 114.263 73.7268 116.549 73.6985C117.119 73.6903 117.689 73.7116 118.256 73.7622L119.959 73.8848L123.373 74.1251C127.098 74.9003 130.721 76.0963 134.173 77.6899C136.278 78.3822 138.293 79.3204 140.176 80.4849C140.947 80.741 141.667 81.1311 142.301 81.6372C142.932 82.1409 143.508 82.7096 144.019 83.3338C144.348 83.8585 144.693 84.3734 145.003 84.9079C145.328 85.4412 145.591 86.0106 145.785 86.6045L145.672 86.6535Z" fill="#191994"/>
<path opacity="0.8" d="M142.444 92.0262C141.251 92.3087 140.039 92.5086 138.818 92.6244C137.598 92.7274 136.358 92.7519 135.157 92.8745C133.937 92.9704 132.74 93.2584 131.61 93.7277C130.493 94.2256 129.435 94.8456 128.456 95.5763C127.762 96.0101 127.123 96.5254 126.552 97.1111C125.806 97.7238 125.177 98.4665 124.697 99.303C125.173 98.4622 125.798 97.7146 126.542 97.0964C127.113 96.5072 127.75 95.9856 128.441 95.542C129.419 94.8041 130.477 94.1774 131.595 93.6737C132.726 93.1927 133.927 92.8948 135.152 92.7911C136.373 92.6587 137.613 92.6342 138.813 92.5214C140.029 92.3963 141.236 92.1899 142.424 91.9036L142.444 92.0262Z" fill="#191994"/>
<path d="M174.93 78.8771C174.974 79.083 174.822 79.1762 174.714 79.3282C174.608 79.512 174.474 79.6776 174.315 79.8186C174.012 80.0117 173.68 80.1542 173.331 80.2403C172.873 80.3825 170.546 80.5247 170.964 79.8087C171.166 79.4655 171.486 79.7107 171.786 79.7107C172.293 79.7523 172.803 79.7243 173.301 79.6273C173.606 79.5704 173.892 79.4427 174.138 79.2546C174.281 79.1272 174.482 78.7643 174.704 78.8525" fill="white"/>
<path d="M148.629 77.0503C148.654 77.5282 148.845 77.9824 149.17 78.335C149.342 78.5556 150.119 79.2078 150.341 78.6978C150.498 78.3399 149.568 77.9721 149.357 77.7466C149.229 77.5995 149.249 77.4376 149.199 77.2562C149.116 76.962 149.027 76.9375 148.707 76.9375" fill="white"/>
<path d="M160.759 78.9396L160.734 78.817C160.616 78.7729 160.513 78.817 160.395 78.817C160.276 78.817 160.07 78.6896 160.021 78.6945C159.971 78.6994 159.898 78.7729 159.848 78.7778C159.736 78.7801 159.625 78.7899 159.514 78.8072C158.84 78.9838 159.283 79.4398 159.735 79.5771C160.131 79.6325 160.522 79.716 160.906 79.8272C161.347 79.9904 161.756 80.2312 162.112 80.5382C162.604 80.4352 162.604 79.5575 162.225 79.2829C161.954 79.0944 161.657 78.9458 161.344 78.8416C161.062 78.7369 160.764 78.6773 160.463 78.665" fill="white"/>
<path opacity="0.2" d="M173.869 167.093C173.904 167.635 173.998 168.173 174.149 168.696C174.154 168.149 174.058 167.606 173.869 167.093Z" fill="#191994"/>
<path d="M175.061 118.645C175.109 117.881 175.117 117.115 175.086 116.35C175.017 115.369 175.287 113.83 174.446 113.123C173.954 113.231 173.516 113.982 173.073 114.256C172.463 114.644 171.312 115.565 170.613 115.673C170.534 115.374 170.643 115.114 170.564 114.815C169.949 114.732 169.088 115.345 168.488 115.536C167.405 115.879 166.072 116.316 164.925 116.252C164.62 115.065 163.051 115.041 162.224 114.423C162.077 114.312 161.94 114.187 161.816 114.05C162.214 113.83 162.618 113.628 163.002 113.378C164.133 112.643 165.309 111.991 166.446 111.231C167.32 110.684 168.144 110.061 168.906 109.367C169.626 108.772 170.292 108.116 170.898 107.406C171.383 106.706 171.829 105.981 172.237 105.234C172.641 104.599 172.922 103.893 173.063 103.155C173.152 102.498 172.827 102.551 172.232 102.478C170.356 102.217 168.467 102.053 166.574 101.988C164.414 101.948 162.249 101.988 160.089 101.988C158.716 101.988 157.353 101.826 155.98 101.836C155.301 101.836 154.613 101.87 153.934 101.836C152.689 101.787 151.523 101.12 150.298 100.943L148.659 99.3152C148.659 99.5162 148.92 99.8448 148.989 100.046C149.201 100.46 149.381 100.89 149.53 101.331C149.567 101.902 149.567 102.475 149.53 103.047C149.558 103.819 149.707 104.582 149.973 105.307C150.268 105.95 150.386 106.612 150.721 107.239C151.055 107.867 151.331 108.308 151.621 108.872C152.113 109.853 152.389 110.897 152.92 111.849C153.171 112.309 153.506 112.712 153.752 113.172C154.059 113.818 154.326 114.481 154.554 115.158C154.859 115.967 155.085 116.826 155.454 117.61C155.623 118.057 155.827 118.49 156.064 118.905C156.359 118.831 156.605 118.37 156.787 118.174C157.245 117.684 157.737 117.233 158.209 116.762C158.406 116.566 158.593 116.379 158.78 116.203C159.031 116.895 159.196 117.614 159.272 118.346C159.351 119.233 159.297 119.758 158.544 120.341C156.035 122.278 152.753 123.082 150.066 124.701C151.706 125.582 153.4 126.359 155.139 127.025C156.753 127.692 158.642 128.084 160.059 129.06C160.768 129.55 160.812 130.006 161.201 130.702C161.545 131.247 161.821 131.832 162.022 132.443C162.696 134.512 164.296 136.185 165.107 138.229C164.246 137.911 163.351 137.249 162.387 137.312C162.76 137.792 163.221 138.198 163.744 138.509C164.31 138.891 165.531 139.74 166.091 139.838C167.115 141.652 169.044 142.897 169.786 144.893C170.032 145.58 169.909 146.261 170.013 146.967C170.134 147.586 170.316 148.192 170.554 148.777C170.672 149.11 170.8 149.419 170.938 149.718C171.031 148.139 171.154 146.57 171.144 144.972C171.144 143.01 171.454 141.088 171.45 139.122V135.621C171.45 134.356 171.253 132.894 171.504 131.644C171.784 130.242 172.684 128.947 173.177 127.618C173.501 126.745 173.609 125.789 174.101 124.99C173.883 125.208 173.619 125.375 173.329 125.48C173.698 124.779 174.047 124.068 174.352 123.342C174.721 122.45 174.766 121.611 175.145 120.729C175.523 119.846 175.036 119.483 175.061 118.645Z" fill="#191994"/>
<path opacity="0.2" d="M172.737 162.463C173.156 163.997 173.475 165.547 173.874 167.087C173.8 166.204 173.845 165.311 173.845 164.399C173.845 162.629 173.845 160.859 173.845 159.089C173.845 157.559 173.569 156.078 173.544 154.553C173.544 153.44 173.052 152.881 172.354 151.998C171.795 151.292 171.322 150.522 170.947 149.704C170.897 150.537 170.853 151.376 170.853 152.219C170.848 155.696 171.827 159.128 172.737 162.463Z" fill="#191994"/>
<path d="M186.739 173.052C186.739 173.052 191.409 187.954 191.792 189.102C192.496 191.215 192.776 193.691 193.268 195.883C193.514 196.996 193.465 198.095 193.691 199.178C193.819 199.777 194.434 201.63 194.887 201.959C195.771 201.438 196.444 200.624 196.786 199.659C196.944 199.13 197.133 198.611 197.352 198.104C197.672 197.413 197.51 197.016 197.652 196.334C197.977 194.809 198.213 194.265 197.554 192.765C197.101 191.745 196.609 190.803 196.23 189.754C195.516 187.655 194.496 185.673 193.204 183.87C192.486 182.889 192.22 181.722 191.541 180.736C190.862 179.751 186.739 173.052 186.739 173.052Z" fill="#8B8BDD"/>
<path d="M168.125 187.682C169.439 189.481 170.659 191.33 171.195 193.458C171.997 196.67 172.671 199.999 173.99 203.054C174.53 204.486 174.942 205.963 175.22 207.467C175.49 208.644 175.112 209.875 175.417 211.037C175.564 211.581 176.233 213.195 175.82 213.749C175.23 214.543 173.503 212.974 173.055 212.459C172.514 211.827 172.455 210.733 172.071 209.831C171.308 207.923 171.018 205.972 170.383 204.02C169.406 200.917 168.256 197.871 166.939 194.895C166.14 193.235 165.114 191.693 163.889 190.315C162.959 189.271 162.516 188.05 161.66 186.971C160.872 185.99 160.149 185.009 159.406 183.989C160.13 182.965 159.003 180.753 160.11 180.523C160.799 180.361 156.449 164.67 156.449 164.67C156.449 164.67 163.367 179.826 164.297 181.896C165.227 183.965 166.732 185.784 168.125 187.682Z" fill="#8B8BDD"/>
<path d="M159.258 352.882C159.332 352.436 159.558 352.068 159.656 351.636C158.701 351.034 157.675 350.551 156.601 350.2C155.838 349.984 155.445 350.058 154.771 349.435C154.249 348.944 153.954 348.331 153.462 347.807C152.97 347.282 152.394 347.101 151.932 346.664C151.469 346.228 151.135 345.728 150.598 345.306C149.56 344.497 148.473 344.208 147.277 343.712C146.987 344.693 147.464 345.326 147.769 346.203C148.148 347.272 147.071 348.327 148.064 349.239C149.058 350.151 150.638 350.111 151.71 350.661C152.453 351.043 153.098 351.838 153.796 352.338C154.584 352.902 154.953 353.617 155.656 354.24C156.36 354.863 157.56 355.25 158.362 355.549C159.563 355.996 160.66 356.31 161.068 354.662C161.137 354.217 161.137 353.764 161.068 353.318C160.862 352.46 160.291 352.539 159.696 351.994" fill="#8B8BDD"/>
</g>
<defs>
<clipPath id="clip0">
<rect width="172.352" height="300" fill="white" transform="translate(34 61)"/>
</clipPath>
</defs>
</svg>
